<svg width="176" height="201" viewBox="0 0 176 201" fill="none" xmlns="http://www.w3.org/2000/svg">
    <path opacity="0.5"
        d="M122.523 150.356C121.582 149.126 120.415 148.087 119.085 147.295C127.465 141.995 134.15 134.405 138.348 125.422C139.101 123.872 139.81 122.315 140.469 120.762C141.119 120.507 141.746 120.197 142.344 119.836C146.199 117.525 148.391 113.211 147.986 108.734C147.813 106.534 147.125 104.405 145.978 102.52C149.489 82.7707 140.958 72.8978 139.762 71.6261C139.817 70.7711 139.815 69.9134 139.758 69.0586C139.947 69.0243 140.141 69.0101 140.328 68.9623C142.947 68.2941 145.074 66.3889 146.026 63.8594C146.422 62.7629 146.643 61.6106 146.679 60.4452C151.819 56.2487 151.758 50.1596 151.727 46.7768C151.72 46.2388 151.712 45.6955 151.732 45.1054C151.862 41.3934 149.473 38.0605 145.916 36.9919C142.36 35.8962 138.511 37.3091 136.509 40.4446C136.129 41.1394 135.551 41.7057 134.849 42.0718C134.058 42.5675 133.303 43.1184 132.589 43.7204C132.266 42.8215 131.93 42.0455 131.65 41.4122C131.613 41.3259 131.576 41.2441 131.538 41.1623C132.945 38.9275 133.196 36.1535 132.211 33.703C131.206 31.1263 128.96 29.2375 126.249 28.6901C122.229 28.0907 118.134 29.0824 114.834 31.4545C114.417 29.9244 113.677 28.5013 112.665 27.2803C110.107 24.0397 106.09 22.3041 101.977 22.6627C97.8823 23.1675 94.3293 25.7306 92.5585 29.4575C91.3161 31.8731 90.9682 34.6503 91.5765 37.2978C90.7084 37.4676 89.8132 37.689 88.9019 37.949C88.3021 33.9372 86.3755 30.242 83.4298 27.4532C80.0741 24.3636 74.8491 24.5793 71.7594 27.935C71.1252 28.6239 70.6127 29.4156 70.2439 30.2763C69.7283 31.5553 69.4292 32.9113 69.3587 34.2885C69.3463 34.4302 69.3317 34.5973 69.3145 34.75C65.3723 37.2747 63.2173 41.8284 63.7648 46.4777C61.4336 44.7774 58.5592 43.9924 55.6873 44.2718C51.5922 44.7766 48.0392 47.3397 46.2685 51.0665C44.3698 54.7255 44.575 59.1209 46.8064 62.5871C47.4185 63.5489 48.1668 64.4169 49.028 65.1642C43.7155 70.7472 39.8482 77.5441 37.763 84.9633C37.6193 85.4678 37.4984 85.9599 37.3785 86.4548L37.2934 86.8021L37.2343 86.9962C34.4389 95.8669 33.933 105.301 35.7639 114.419C29.2648 115.125 23.8108 121.451 19.5005 133.321C15.4268 144.531 14.8508 151.227 17.5064 156.431C18.0989 157.592 18.8669 158.654 19.7834 159.581C21.1379 161.418 22.9603 162.86 25.061 163.754C25.6126 163.99 26.1783 164.191 26.755 164.357C29.307 165.146 32.0671 164.902 34.4408 163.677C34.4755 163.714 34.5083 163.75 34.5438 163.784C36.2858 166.147 38.775 167.852 41.6076 168.622C43.6621 169.237 45.8568 169.197 47.8878 168.509L47.8926 168.513C50.7641 172.312 54.7958 175.071 59.3765 176.372C62.889 177.345 66.578 177.5 70.1596 176.823C70.7698 178.179 71.6248 179.41 72.6818 180.455C73.8263 181.986 75.3081 183.233 77.0122 184.1C80.0596 185.707 83.6046 186.095 86.9275 185.184C87.5656 186.737 88.5012 188.151 89.6814 189.345C92.74 193.47 97.929 195.426 102.95 194.344C108.788 193.044 112.993 187.937 113.147 181.958C116.64 179.591 119.439 176.337 121.257 172.53C125.201 165.017 127.125 159.675 125.287 154.6C124.707 152.99 123.761 151.537 122.523 150.356ZM142.387 56.3102L142.323 56.2543L142.319 56.2501L142.387 56.3102Z"
        fill="#231F20" />
    <path
        d="M121.256 147.322C120.315 146.093 119.148 145.054 117.818 144.262C126.197 138.962 132.882 131.371 137.08 122.389C137.834 120.839 138.543 119.282 139.201 117.728C139.851 117.473 140.479 117.164 141.076 116.803C144.931 114.491 147.123 110.178 146.718 105.701C146.545 103.501 145.857 101.372 144.71 99.4865C148.221 79.7374 139.691 69.8646 138.494 68.5929C138.549 67.7379 138.548 66.8802 138.49 66.0254C138.68 65.9911 138.873 65.977 139.06 65.929C141.679 65.2609 143.806 63.3557 144.758 60.8262C145.155 59.7297 145.375 58.5774 145.411 57.412C150.552 53.2155 150.491 47.1264 150.459 43.7436C150.453 43.2056 150.444 42.6623 150.464 42.0722C150.594 38.3602 148.205 35.0273 144.648 33.9586C141.093 32.8629 137.244 34.2758 135.241 37.4113C134.861 38.1061 134.284 38.6724 133.581 39.0385C132.79 39.5342 132.035 40.0851 131.321 40.6871C130.999 39.7882 130.662 39.0122 130.383 38.3789C130.345 38.2926 130.308 38.2108 130.271 38.129C131.678 35.8942 131.928 33.1202 130.943 30.6697C129.939 28.093 127.692 26.2043 124.981 25.6568C120.962 25.0575 116.867 26.0492 113.567 28.4213C113.149 26.8912 112.41 25.4681 111.397 24.247C108.84 21.0064 104.823 19.2709 100.71 19.6294C96.6148 20.1342 93.0619 22.6973 91.2911 26.4242C90.0486 28.8398 89.7007 31.6171 90.309 34.2645C89.441 34.4343 88.5458 34.6557 87.6344 34.9158C87.0346 30.9039 85.1081 27.2087 82.1624 24.4199C78.8067 21.3302 73.5816 21.5459 70.492 24.9017C69.8577 25.5905 69.3452 26.3823 68.9764 27.243C68.4609 28.522 68.1618 29.878 68.0913 31.2553C68.0788 31.3969 68.0643 31.5639 68.0471 31.7167C64.1049 34.2413 61.9499 38.7951 62.4974 43.4444C60.1662 41.7441 57.2917 40.9591 54.4199 41.2384C50.3247 41.7432 46.7717 44.3063 45.001 48.0332C43.1022 51.6922 43.3075 56.0876 45.5388 59.5538C46.151 60.5156 46.8993 61.3836 47.7604 62.1309C42.448 67.7138 38.5807 74.5108 36.4954 81.93C36.3517 82.4345 36.2309 82.9266 36.111 83.4214L36.0258 83.7688L35.9668 83.9629C33.1713 92.8336 32.6655 102.267 34.4964 111.386C27.9972 112.092 22.5433 118.418 18.233 130.288C14.1593 141.498 13.5833 148.194 16.2389 153.398C16.8314 154.559 17.5994 155.621 18.5158 156.547C19.8704 158.385 21.6928 159.826 23.7935 160.721C24.3451 160.957 24.9108 161.158 25.4875 161.324C28.0395 162.113 30.7995 161.869 33.1733 160.643C33.208 160.68 33.2409 160.716 33.2763 160.751C35.0183 163.114 37.5075 164.819 40.3401 165.589C42.3945 166.203 44.5892 166.164 46.6203 165.476L46.625 165.48C49.4966 169.279 53.5282 172.038 58.1089 173.339C61.6214 174.312 65.3105 174.467 68.892 173.79C69.5023 175.145 70.3573 176.376 71.4143 177.421C72.5589 178.953 74.0406 180.2 75.7448 181.066C78.7922 182.674 82.3372 183.062 85.6601 182.151C86.2982 183.704 87.2338 185.117 88.414 186.311C91.4726 190.437 96.6616 192.392 101.682 191.311C107.521 190.011 111.725 184.904 111.88 178.925C115.372 176.558 118.172 173.304 119.99 169.496C123.934 161.984 125.858 156.642 124.02 151.566C123.439 149.957 122.493 148.504 121.256 147.322ZM141.12 53.2769L141.056 53.2211L141.051 53.2168L141.12 53.2769Z"
        fill="white" />
    <path
        d="M65.5682 61.0925C55.0116 65.8884 47.0913 75.0753 43.9026 86.2232C39.1044 102.965 40.182 121.611 63.6086 136.028C82.3504 147.561 115.197 148.458 129.65 118.762C144.119 89.0308 132.478 74.2415 132.478 74.2415C132.478 74.2415 128.596 86.5953 125.5 83.3453C122.404 80.0953 131.023 75.9725 129.59 67.3434C129.132 63.6575 127.917 60.1061 126.022 56.9119C126.022 56.9119 118.229 69.6629 116.21 64.6179C115.022 61.6513 121.432 58.862 123.177 52.7082C125.691 43.8463 118.641 40.4643 123.273 33.7238C120.332 33.1052 112.652 39.0581 112.053 46.38C111.546 52.5843 104.12 46.9357 98.2906 50.3162C92.6639 53.579 93.7859 59.1094 90.9527 58.7146C88.734 58.4054 90.5005 48.2448 95.1044 41.9881C89.5192 42.0536 77.9875 47.8174 73.9778 58.1758C71.8855 63.5808 69.3589 71.2355 66.301 67.6668C65.1483 66.3216 65.5682 61.0925 65.5682 61.0925Z"
        fill="#22093A" stroke="#22093A" stroke-linecap="round" stroke-linejoin="round" />
    <path
        d="M66.0995 59.0589C55.5429 63.8547 47.6227 73.0417 44.434 84.1895C39.6357 100.932 40.7133 119.577 64.14 133.994C82.8817 145.528 115.728 146.425 130.181 116.728C144.651 86.9972 132.479 74.2421 132.479 74.2421C132.479 74.2421 129.127 84.5617 126.031 81.3117C122.935 78.0618 131.554 73.9389 130.121 65.3098C128.95 58.2629 126.024 56.9125 126.024 56.9125C126.024 56.9125 118.76 67.6293 116.741 62.5843C115.554 59.6178 121.963 56.8284 123.709 50.6746C126.222 41.8127 118.643 40.4649 123.275 33.7244C120.334 33.1058 113.183 37.0246 112.585 44.3465C112.077 50.5507 104.652 44.9022 98.8219 48.2827C93.1953 51.5455 94.3173 57.0759 91.484 56.6811C89.2654 56.3719 90.5022 48.2455 95.106 41.9888C89.5209 42.0542 78.5188 45.7839 74.5091 56.1423C72.4168 61.5473 69.8903 69.2019 66.8324 65.6333C65.6796 64.2879 66.0995 59.0589 66.0995 59.0589Z"
        fill="#FCC707" stroke="#22093A" stroke-linecap="round" stroke-linejoin="round" />
    <path d="M120.719 122.312C115.985 128.467 109.399 132.94 101.932 135.07" stroke="#22093A" stroke-linecap="round"
        stroke-linejoin="round" />
    <path d="M124.589 116.749C124.176 117.433 123.67 118.253 123.058 119.16" stroke="#22093A" stroke-linecap="round"
        stroke-linejoin="round" />
    <path
        d="M76.5663 30.4819C76.5663 30.4819 81.5999 35.1418 78.6646 41.0263C76.247 45.8731 75.3475 42.9701 71.2398 48.8353C71.5765 44.3399 69.0091 40.8868 72.7491 38.4938C77.0024 35.7725 75.9738 31.8651 76.5663 30.4819Z"
        fill="#FCC707" stroke="#22093A" stroke-linecap="round" stroke-linejoin="round" />
    <path
        d="M114.113 115.962C124.455 96.1711 116.319 82.0913 102.585 74.6879C91.6374 68.7866 74.9002 67.8762 65.4171 81.3333C58.1238 91.683 56.0828 98.7494 62.4132 106.023C62.4132 106.023 55.9137 113.544 60.893 115.91C64.429 117.589 68.1472 113.571 68.1472 113.571C68.1472 113.571 66.2647 118.479 69.1691 119.868C72.0736 121.258 76.1496 116.337 76.1496 116.337C76.1496 116.337 73.8729 122.433 77.6404 124.235C81.4079 126.037 84.2381 121.921 84.2381 121.921C84.2381 121.921 82.6721 126.56 85.8296 128.152C89.0035 129.752 91.7056 128.84 94.0213 124.081C95.7614 120.505 100.217 121.971 105.377 122.655C110.196 123.293 113.029 118.035 114.113 115.962Z"
        fill="#22093A" stroke="#22093A" stroke-linecap="round" stroke-linejoin="round" />
    <path
        d="M67.9148 112.175C67.9148 112.175 64.1967 116.193 60.6606 114.513C55.6813 112.148 62.1808 104.626 62.1808 104.626C55.8504 97.3529 57.8914 90.2865 65.1847 79.9368C74.6678 66.4797 91.405 67.3902 102.353 73.2914C116.087 80.6948 124.223 94.7745 113.88 114.566C112.797 116.639 109.964 121.897 105.145 121.258C99.9842 120.574 95.529 119.108 93.7889 122.684C91.4732 127.444 88.7711 128.356 85.5973 126.756C82.4398 125.164 84.0058 120.524 84.0058 120.524C84.0058 120.524 81.1756 124.641 77.4081 122.839C73.6406 121.037 75.9173 114.941 75.9173 114.941C75.9173 114.941 71.8413 119.861 68.9369 118.472C66.0324 117.083 67.9148 112.175 67.9148 112.175Z"
        fill="#E6E7E8" stroke="#22093A" stroke-linecap="round" stroke-linejoin="round" />
    <path
        d="M72.3041 106.531C70.4895 104.807 75.7983 97.6811 79.2724 99.3428C82.7465 101.005 79.6551 109.387 77.2617 108.902C76.3789 108.723 76.6244 105.867 75.9687 105.539C75.2605 105.184 72.9923 107.184 72.3041 106.531Z"
        fill="#22093A" stroke="#22093A" stroke-linecap="round" stroke-linejoin="round" />
    <path
        d="M99.8405 107.048C102.228 102.057 101.238 96.6129 97.6312 94.8875C94.0239 93.162 89.1645 95.809 86.7773 100.8C84.3902 105.79 85.3794 111.235 88.9867 112.96C92.594 114.686 97.4534 112.039 99.8405 107.048Z"
        fill="#22093A" stroke="#22093A" stroke-linecap="round" stroke-linejoin="round" />
    <path
        d="M75.302 95.1722C77.1362 91.3375 76.3762 87.1541 73.6044 85.8283C70.8326 84.5025 67.0987 86.5364 65.2645 90.3711C63.4303 94.2058 64.1903 98.3892 66.9621 99.715C69.7339 101.041 73.4678 99.007 75.302 95.1722Z"
        fill="#22093A" stroke="#22093A" stroke-linecap="round" stroke-linejoin="round" />
    <path d="M64.6029 106.919C62.9971 108.875 62.5421 110.045 62.7813 111.171" stroke="white" stroke-linecap="round"
        stroke-linejoin="round" />
    <path d="M78.4375 117.281C77.8818 118.579 77.9512 119.717 78.789 120.076" stroke="white" stroke-linecap="round"
        stroke-linejoin="round" />
    <path d="M87.1426 121.01C86.8031 122.4 86.8239 123.944 87.6888 124.314" stroke="white" stroke-linecap="round"
        stroke-linejoin="round" />
    <path
        d="M137.021 57.9122C134.588 55.8117 133.752 52.3999 134.939 49.4123C136.732 45.3848 139.073 46.7495 142.204 41.8335C142.091 45.5011 142.796 49.1815 139.84 51.2609C136.478 53.6255 137.454 56.7662 137.021 57.9122Z"
        fill="#FCC707" stroke="#22093A" stroke-linecap="round" stroke-linejoin="round" />
    <path
        d="M131.606 102.66C129.597 103.759 128.859 106.28 129.959 108.289C130.253 108.827 130.662 109.292 131.158 109.652C133.907 111.407 138.816 110.212 138.487 106.396C138.605 104 136.759 101.962 134.364 101.843C133.378 101.794 132.406 102.082 131.606 102.66Z"
        fill="#EC6509" stroke="#22093A" stroke-linecap="round" stroke-linejoin="round" />
    <path
        d="M52.3515 51.7803C51.5079 53.458 52.1841 55.502 53.8618 56.3456C54.3104 56.5712 54.8035 56.6946 55.3055 56.707C57.9778 56.6105 60.7328 53.5178 58.7335 51.0969C57.6979 49.4252 55.5032 48.9097 53.8315 49.9454C53.1441 50.3712 52.6222 51.0184 52.3515 51.7803Z"
        fill="#EC6509" stroke="#22093A" stroke-linecap="round" stroke-linejoin="round" />
    <path
        d="M98.6426 30.1728C97.799 31.8506 98.4752 33.8945 100.153 34.7381C100.602 34.9637 101.095 35.0871 101.596 35.0995C104.269 35.003 107.024 31.9102 105.025 29.4894C103.989 27.8178 101.794 27.3023 100.122 28.338C99.4351 28.7639 98.9132 29.4109 98.6426 30.1728Z"
        fill="#FCC707" stroke="#22093A" stroke-linecap="round" stroke-linejoin="round" />
    <path
        d="M113.531 152.069C111.023 151.029 107.41 151.048 101.667 161.083C96.5387 170.042 100.09 171.982 101.051 172.38C102.012 172.778 107.449 175.6 112.675 165.644C117.901 155.689 117.248 153.609 113.531 152.069Z"
        fill="#22093A" stroke="#22093A" stroke-linecap="round" stroke-linejoin="round" />
    <path
        d="M96.9822 182.963C99.3983 183.998 102.196 182.879 103.231 180.462C104.266 178.046 103.146 175.249 100.73 174.214C98.3141 173.179 95.5165 174.298 94.4815 176.715C93.4465 179.131 94.5662 181.928 96.9822 182.963Z"
        fill="#22093A" stroke="#22093A" stroke-linecap="round" stroke-linejoin="round" />
    <path
        d="M71.6314 131.03C80.1597 134.081 84.6005 143.467 81.55 151.996C81.4224 152.352 81.2826 152.704 81.1307 153.051C76.7648 164.455 67.1943 167.271 60.3063 165.367C54.0914 163.649 47.3834 156.46 51.6112 144.166C55.075 134.094 62.364 128.538 71.6314 131.03Z"
        fill="#22093A" stroke="#22093A" stroke-linecap="round" stroke-linejoin="round" />
    <path
        d="M69.6987 140.34C70.7361 140.193 71.2714 142.857 69.2627 148.145C67.254 153.432 65.1271 155.878 63.9999 156.017C62.9828 156.142 62.4325 154.078 64.5062 148.442C66.205 143.824 68.1749 140.556 69.6987 140.34Z"
        fill="#22093A" stroke="#22093A" stroke-linecap="round" stroke-linejoin="round" />
    <path
        d="M96.5736 143.235C84.8513 137.568 79.8113 138.875 78.973 143.122C77.7134 149.506 85.6282 152.05 85.6282 152.05C85.6282 152.05 71.7084 169.722 79.4731 173.684C89.1538 178.623 93.9157 155.186 93.9157 155.186C93.9157 155.186 105.129 161.097 106.939 156.086C108.46 151.874 104.43 147.032 96.5736 143.235Z"
        fill="#22093A" stroke="#22093A" stroke-linecap="round" stroke-linejoin="round" />
    <path
        d="M53.6054 125.564C50.0194 124.266 46.4794 127.49 42.9371 136.243C41.9295 135.808 40.823 135.399 39.654 135.002C42.5763 127.326 42.8178 122.769 38.7495 121.297C34.8425 119.883 30.9905 123.816 27.1304 134.442C23.2704 145.067 22.4893 151.862 27.7561 153.369C30.334 154.107 32.9028 150.16 35.5522 144.555C36.1327 144.746 36.744 144.927 37.4156 145.087C38.2681 145.291 39.0598 145.44 39.817 145.555C38.102 152.235 38.5866 156.484 42.612 157.636C46.0749 158.627 49.5205 151.172 53.168 142.589C57.2893 132.892 58.23 127.238 53.6054 125.564Z"
        fill="#22093A" stroke="#22093A" stroke-linecap="round" stroke-linejoin="round" />
    <path
        d="M112.391 150.721C109.882 149.682 106.269 149.7 100.526 159.735C95.398 168.695 98.9491 170.634 99.91 171.032C100.871 171.431 106.308 174.252 111.534 164.297C116.761 154.341 116.107 152.261 112.391 150.721Z"
        fill="#E9022C" stroke="#22093A" stroke-linecap="round" stroke-linejoin="round" />
    <path
        d="M95.8436 181.616C98.2596 182.651 101.057 181.531 102.092 179.115C103.127 176.699 102.008 173.901 99.5915 172.866C97.1754 171.831 94.3778 172.951 93.3428 175.367C92.3079 177.783 93.4275 180.581 95.8436 181.616Z"
        fill="#E9022C" stroke="#22093A" stroke-linecap="round" stroke-linejoin="round" />
    <path
        d="M70.4927 129.683C79.0211 132.733 83.4618 142.12 80.4113 150.648C80.2838 151.005 80.1439 151.357 79.992 151.703C75.6262 163.107 66.0556 165.924 59.1676 164.019C52.9527 162.301 46.2447 155.113 50.4726 142.819C53.9363 132.746 61.2254 127.191 70.4927 129.683Z"
        fill="#E9022C" stroke="#22093A" stroke-linecap="round" stroke-linejoin="round" />
    <path
        d="M68.56 138.992C69.5974 138.845 70.1328 141.51 68.124 146.797C66.1153 152.085 63.9884 154.53 62.8612 154.669C61.8442 154.794 61.2938 152.731 63.3675 147.094C65.0664 142.477 67.0362 139.208 68.56 138.992Z"
        fill="#22093A" stroke="#22093A" stroke-linecap="round" stroke-linejoin="round" />
    <path
        d="M95.435 141.887C83.7126 136.22 78.6726 137.527 77.8344 141.775C76.5747 148.158 84.4895 150.703 84.4895 150.703C84.4895 150.703 70.5698 168.375 78.3345 172.336C88.0152 177.275 92.777 153.838 92.777 153.838C92.777 153.838 103.991 159.75 105.801 154.738C107.321 150.527 103.291 145.685 95.435 141.887Z"
        fill="#E9022C" stroke="#22093A" stroke-linecap="round" stroke-linejoin="round" />
    <path
        d="M52.4668 124.216C48.8807 122.918 45.3407 126.142 41.7984 134.895C40.7909 134.461 39.6844 134.052 38.5153 133.654C41.4376 125.978 41.6791 121.422 37.6108 119.949C33.7038 118.535 29.8518 122.468 25.9917 133.094C22.1317 143.72 21.3507 150.514 26.6174 152.021C29.1954 152.759 31.7642 148.812 34.4135 143.207C34.994 143.398 35.6054 143.579 36.2769 143.739C37.1294 143.943 37.9212 144.092 38.6783 144.208C36.9634 150.887 37.448 155.137 41.4734 156.289C44.9363 157.279 48.3819 149.824 52.0293 141.241C56.1506 131.544 57.0913 125.89 52.4668 124.216Z"
        fill="#E9022C" stroke="#22093A" stroke-linecap="round" stroke-linejoin="round" />
</svg>