<svg width="166" height="139" viewBox="0 0 166 139" fill="none" xmlns="http://www.w3.org/2000/svg">
<path opacity="0.5" d="M137.132 48.4341L137.131 48.433C130.173 41.2128 122.397 34.8285 113.961 29.4094C113.752 27.6202 113.053 25.9236 111.94 24.5071C109.844 21.6307 106.511 19.9164 102.952 19.8853C101.393 19.9147 99.8621 20.3078 98.4818 21.0334C87.0194 15.6284 74.6181 12.4963 61.9638 11.8104C34.1733 10.4659 15.6814 25.3746 13.7006 50.7164C12.2557 69.2085 25.172 84.8748 32.522 92.2017L22.5899 102.497C20.096 104.759 19.9075 108.614 22.1689 111.107C23.0101 112.035 24.1165 112.681 25.3377 112.958C26.1505 113.135 26.9914 113.141 27.8065 112.975L51.7537 108.099C57.5192 111.196 74.659 119.867 92.767 123.814C92.8911 123.841 93.0135 123.868 93.1361 123.894C93.5531 124.568 94.048 125.191 94.6106 125.749C96.4002 127.545 98.827 128.56 101.362 128.574C104.008 128.532 106.554 127.552 108.546 125.81C110.42 125.85 112.295 125.797 114.163 125.65C129.699 124.394 144.57 112.861 150.328 97.6037C153.93 88.0658 157.002 68.9943 137.132 48.4341Z" fill="#231F20"/>
<path d="M136.78 46.2486L136.779 46.2475C129.821 39.0273 122.045 32.643 113.609 27.2239C113.4 25.4347 112.701 23.7381 111.588 22.3216C109.493 19.4452 106.159 17.7309 102.6 17.6998C101.041 17.7292 99.5105 18.1223 98.1302 18.8479C86.6678 13.4429 74.2665 10.3108 61.6122 9.62484C33.8217 8.28044 15.3299 23.1891 13.349 48.5309C11.9041 67.023 24.8205 82.6892 32.1704 90.0162L22.2383 100.312C19.7445 102.573 19.556 106.428 21.8173 108.922C22.6585 109.85 23.7649 110.496 24.9862 110.772C25.7989 110.95 26.6398 110.955 27.4549 110.789L51.4022 105.913C57.1677 109.011 74.3074 117.681 92.4154 121.629C92.5395 121.656 92.6619 121.682 92.7845 121.708C93.2015 122.382 93.6964 123.005 94.2591 123.564C96.0486 125.359 98.4754 126.375 101.011 126.389C103.657 126.346 106.202 125.367 108.194 123.624C110.068 123.665 111.943 123.612 113.812 123.465C129.347 122.208 144.219 110.676 149.977 95.4184C153.578 85.8804 156.651 66.8088 136.78 46.2486Z" fill="white"/>
<path d="M132.475 50.411C115.429 32.7724 90.8691 17.6513 62.831 16.2952C38.3678 15.112 22.5676 27.424 20.8274 49.6887C19.0872 71.9535 42.2577 90.4382 42.2577 90.4382L26.26 104.924L52.3623 99.6093C52.3623 99.6093 87.2729 119.607 113.33 117.499C138.002 115.504 163.115 82.1167 132.475 50.411Z" fill="#22093A" stroke="#22093A" stroke-width="1.2102" stroke-linecap="round" stroke-linejoin="round"/>
<path d="M130.965 49.7236C113.919 32.0849 89.3593 16.9637 61.3212 15.6077C36.8581 14.4245 21.0579 26.7365 19.3177 49.0012C17.5775 71.266 40.7479 89.7507 40.7479 89.7507L26.5456 104.472L52.3688 98.6131C52.3688 98.6131 85.7631 118.919 111.82 116.812C136.493 114.817 161.605 81.4291 130.965 49.7236Z" fill="#EC6509" stroke="#22093A" stroke-width="1.2102" stroke-linecap="round" stroke-linejoin="round"/>
<path d="M98.4399 26.65C97.2655 28.824 98.0758 31.5384 100.25 32.7128C100.831 33.0269 101.475 33.2083 102.135 33.244C105.653 33.2204 109.396 29.2592 106.86 25.9979C104.324 22.7365 100.535 22.8429 98.4399 26.65Z" fill="#9736FF" stroke="#22093A" stroke-width="1.2102" stroke-linecap="round" stroke-linejoin="round"/>
<path d="M57.5751 23.246C55.2856 22.7189 54.3059 24.9107 54.1249 26.7108C53.9133 28.8156 57.8495 31.2478 59.4694 28.3705C60.7805 26.0417 60.3145 23.8766 57.5751 23.246Z" fill="white" stroke="#22093A" stroke-width="1.2102" stroke-linecap="round" stroke-linejoin="round"/>
<path d="M97.7331 114.629C96.7043 116.533 97.4141 118.911 99.3185 119.94C99.8278 120.215 100.392 120.374 100.97 120.406C104.052 120.385 107.331 116.915 105.109 114.058C102.888 111.201 99.5685 111.294 97.7331 114.629Z" fill="white" stroke="#22093A" stroke-width="1.2102" stroke-linecap="round" stroke-linejoin="round"/>
<path d="M64.7104 45.3366C62.0759 44.469 59.539 47.0633 57.0784 53.8931C56.3373 53.5958 55.5243 53.3214 54.6658 53.0582C56.6893 47.0752 56.8011 43.5767 53.8124 42.5926C50.9423 41.6473 48.1877 44.796 45.5218 53.0715C42.8559 61.347 42.3821 66.5791 46.2455 67.5475C48.1365 68.0215 49.9548 64.9075 51.8084 60.5206C52.2345 60.6464 52.6831 60.7633 53.1753 60.8625C53.8 60.9886 54.3798 61.0746 54.9338 61.1364C53.777 66.3134 54.1905 69.5513 57.1434 70.2915C59.6836 70.9282 62.092 65.0957 64.6317 58.3928C67.5013 50.8195 68.1077 46.4554 64.7104 45.3366Z" fill="#22093A" stroke="#22093A" stroke-width="1.2102" stroke-linecap="round" stroke-linejoin="round"/>
<path d="M72.8479 76.0894C75.7136 76.3858 78.375 74.5715 79.1464 71.7957C80.3528 68.6019 85.5891 53.1015 77.5635 50.1673C73.3862 48.64 68.7331 52.2114 65.3004 57.0186C61.576 62.234 57.6515 70.6591 60.8465 72.136C65.9789 74.5084 73.1339 59.9208 73.1339 59.9208C73.1339 59.9208 67.4128 75.3175 72.8479 76.0894Z" fill="#22093A" stroke="#22093A" stroke-width="1.2102" stroke-linecap="round" stroke-linejoin="round"/>
<path d="M88.5515 55.0189C83.9921 55.0377 74.4285 76.5574 80.4529 78.5758C86.4773 80.5942 88.8744 69.1526 88.8744 69.1526C88.8744 69.1526 88.4064 80.9336 93.6853 81.9977C99.7368 83.2176 108.857 60.2581 104.403 58.2065C98.4017 55.4421 94.1514 65.1249 94.1514 65.1249C94.1514 65.1249 94.2053 54.9956 88.5515 55.0189Z" fill="#22093A" stroke="#22093A" stroke-width="1.2102" stroke-linecap="round" stroke-linejoin="round"/>
<path d="M43.7057 38.2934C34.2257 35.011 30.4863 36.4642 30.2268 39.7901C29.8368 44.7881 36.1224 46.0239 36.1224 46.0239C36.1224 46.0239 27.0592 60.799 33.3574 63.1323C41.2096 66.0414 42.7463 47.6781 42.7463 47.6781C42.7463 47.6781 51.8591 51.1937 52.7934 47.1957C53.5785 43.8362 50.0591 40.4932 43.7057 38.2934Z" fill="#22093A" stroke="#22093A" stroke-width="1.2102" stroke-linecap="round" stroke-linejoin="round"/>
<path d="M108.467 60.4984C104.152 59.9074 94.5954 82.1763 98.5411 85.0389C103.184 88.4071 108.581 78.5385 108.581 78.5385C108.581 78.5385 109.289 88.5242 111.481 89.7908C117.304 93.1547 119.534 85.2597 115.794 76.2879C115.794 76.2879 128.567 72.2385 123.564 66.7895C120.098 63.0162 111.193 72.0918 111.193 72.0918C111.193 72.0918 114.5 61.3247 108.467 60.4984Z" fill="#22093A" stroke="#22093A" stroke-width="1.2102" stroke-linecap="round" stroke-linejoin="round"/>
<path d="M137.963 78.029C139.011 75.2075 138.588 71.2688 132.346 69.194C126.199 67.1512 119.161 73.693 123.951 79.4791C128.386 84.8369 125.121 87.9381 123.476 84.858C120.313 78.9332 112.117 85.643 117.276 91.4017C122.436 97.1603 131.075 96.1199 133.571 92.3387C138.299 85.1764 132.86 81.4663 130.601 79.1089C130.601 79.1089 136.364 82.3353 137.963 78.029Z" fill="#22093A" stroke="#22093A" stroke-width="1.2102" stroke-linecap="round" stroke-linejoin="round"/>
<path d="M64.4369 44.2761C61.8025 43.4084 59.2656 46.0027 56.805 52.8326C56.0638 52.5352 55.2508 52.2609 54.3924 51.9976C56.4158 46.0147 56.5277 42.5162 53.539 41.532C50.6689 40.5867 47.9143 43.7354 45.2483 52.011C42.5824 60.2865 42.1086 65.5185 45.972 66.4869C47.8631 66.9609 49.6813 63.847 51.535 59.46C51.961 59.5858 52.4097 59.7027 52.9018 59.802C53.5266 59.928 54.1063 60.0141 54.6603 60.0758C53.5036 65.2528 53.9171 68.4907 56.87 69.2309C59.4102 69.8677 61.8185 64.0352 64.3582 57.3323C67.2279 49.759 67.8343 45.3948 64.4369 44.2761Z" fill="#F1F2F2" stroke="#22093A" stroke-width="1.2102" stroke-linecap="round" stroke-linejoin="round"/>
<path d="M88.278 53.9584C83.7187 53.9772 74.1551 75.4969 80.1794 77.5153C86.2038 79.5337 88.6009 68.0921 88.6009 68.0921C88.6009 68.0921 88.1329 79.8731 93.4119 80.9372C99.4633 82.1571 108.584 59.1975 104.13 57.146C98.1282 54.3815 93.8779 64.0644 93.8779 64.0644C93.8779 64.0644 93.9319 53.9351 88.278 53.9584Z" fill="#F1F2F2" stroke="#22093A" stroke-width="1.2102" stroke-linecap="round" stroke-linejoin="round"/>
<path d="M43.4303 37.2329C33.9503 33.9505 30.2109 35.4036 29.9514 38.7296C29.5614 43.7275 35.847 44.9634 35.847 44.9634C35.847 44.9634 26.7838 59.7384 33.082 62.0718C40.9342 64.9809 42.4709 46.6176 42.4709 46.6176C42.4709 46.6176 51.5837 50.1331 52.518 46.1351C53.3031 42.7757 49.7837 39.4327 43.4303 37.2329Z" fill="#F1F2F2" stroke="#22093A" stroke-width="1.2102" stroke-linecap="round" stroke-linejoin="round"/>
<path d="M108.194 59.434C103.879 58.843 94.322 81.1118 98.2677 83.9744C102.91 87.3427 108.308 77.4741 108.308 77.4741C108.308 77.4741 109.016 87.4598 111.208 88.7263C117.03 92.0902 119.26 84.1952 115.521 75.2235C115.521 75.2235 128.294 71.174 123.29 65.7251C119.825 61.9517 110.92 71.0274 110.92 71.0274C110.92 71.0274 114.226 60.2603 108.194 59.434Z" fill="#F1F2F2" stroke="#22093A" stroke-width="1.2102" stroke-linecap="round" stroke-linejoin="round"/>
<path d="M137.69 76.9665C138.738 74.145 138.315 70.2063 132.072 68.1315C125.926 66.0887 118.888 72.6305 123.677 78.4166C128.112 83.7744 124.848 86.8756 123.203 83.7955C120.039 77.8707 111.843 84.5806 117.003 90.3392C122.162 96.0978 130.801 95.0574 133.297 91.2763C138.026 84.1139 132.587 80.4038 130.328 78.0464C130.328 78.0464 136.09 81.2728 137.69 76.9665Z" fill="#F1F2F2" stroke="#22093A" stroke-width="1.2102" stroke-linecap="round" stroke-linejoin="round"/>
<path d="M77.2901 49.1048C73.1127 47.5775 68.4597 51.1489 65.0269 55.956C61.3026 61.1714 57.3781 69.5966 60.5731 71.0735C62.9998 72.1952 65.8779 69.5245 68.2389 66.3978L70.5508 67.3718C69.9302 71.0759 70.0218 74.6643 72.5745 75.0268C75.4401 75.3233 78.1016 73.5089 78.8729 70.7331C80.0794 67.5393 85.3156 52.039 77.2901 49.1048ZM72.8605 58.8583C72.8605 58.8583 72.1133 60.8732 71.4154 63.4787L70.4684 63.1181C71.9149 60.7827 72.8605 58.8583 72.8605 58.8583Z" fill="#F1F2F2" stroke="#22093A" stroke-width="1.2102" stroke-linecap="round" stroke-linejoin="round"/>
<path d="M69.4573 92.6004C68.2825 94.7751 69.0931 97.4904 71.2678 98.6652C71.8493 98.9793 72.4931 99.1607 73.1531 99.1964C76.6727 99.1728 80.417 95.2104 77.8802 91.9481C75.3434 88.6857 71.5529 88.7921 69.4573 92.6004Z" fill="#9736FF" stroke="#22093A" stroke-width="1.2102" stroke-linecap="round" stroke-linejoin="round"/>
</svg>
