<svg width="181" height="180" viewBox="0 0 181 180" fill="none" xmlns="http://www.w3.org/2000/svg">
    <path opacity="0.5"
        d="M159.532 101.349C159.849 99.2815 159.19 97.1842 157.749 95.6688L155.424 93.2345L143.393 79.5959L151.426 60.6844C151.644 60.1813 151.793 59.6507 151.867 59.1073C151.959 58.5821 151.989 58.0479 151.957 57.5157C151.917 57.0085 151.815 56.508 151.654 56.0251C151.617 55.9007 151.576 55.7757 151.532 55.6517C151.394 55.2409 151.206 54.8485 150.973 54.4833C150.705 54.0571 150.387 53.664 150.026 53.3121C149.664 52.9399 149.261 52.6092 148.825 52.326C148.411 52.0651 147.966 51.8557 147.501 51.7027C147.026 51.5255 146.531 51.4035 146.027 51.339L124.215 48.8132C124.08 47.5302 123.808 46.2654 123.403 45.0406C122.97 43.723 122.365 42.4684 121.604 41.309C120.145 38.5185 117.761 36.3222 114.86 35.0964L110.526 26.3835C109.594 24.4924 107.821 23.1544 105.747 22.7761C103.674 22.3923 101.54 22.9983 99.9781 24.4146L84.3792 38.6324L67.8329 30.202C64.5162 28.5306 60.4726 29.8644 58.8012 33.1811C58.3062 34.1634 58.0597 35.2522 58.0833 36.352L58.3708 49.4428L38.8138 49.89C38.2598 49.9021 37.7099 49.9892 37.1793 50.1491C36.757 50.2599 36.3466 50.4121 35.954 50.6033C35.4632 50.85 35.0066 51.1595 34.5957 51.524C34.3546 51.7245 34.1278 51.9416 33.9172 52.1738L33.9159 52.1724C33.8366 52.2606 33.7607 52.3512 33.6875 52.4438L33.6412 52.5033L33.6281 52.5191C33.5272 52.6508 33.4307 52.787 33.3403 52.9275L33.3411 52.9279C33.3066 52.9827 33.2719 53.0401 33.2379 53.0979C33.1898 53.1781 33.1446 53.2596 33.1007 53.3425C32.9696 53.5861 32.8525 53.8371 32.7502 54.0941C32.5645 54.5307 32.4277 54.9866 32.3423 55.4533C32.1985 56.4001 32.237 57.3658 32.4556 58.2982L32.4549 58.2979C32.4723 58.3672 32.4994 58.4657 32.5197 58.5344L37.5464 75.7963L23.8225 86.1984C23.4473 86.491 23.105 86.8235 22.8018 87.1902C22.4966 87.5424 22.2279 87.9247 21.9999 88.3313C21.7669 88.7585 21.5851 89.2117 21.4582 89.6816C21.3302 90.1001 21.2446 90.5305 21.2025 90.9661C21.1979 91.0179 21.1942 91.0699 21.1912 91.1223C21.1855 91.1994 21.1821 91.2775 21.1798 91.3552C21.1653 91.845 21.2107 92.3347 21.3148 92.8135C21.3946 93.2656 21.5239 93.7076 21.7003 94.1315C21.8752 94.5353 22.0883 94.9214 22.3369 95.2846C22.6057 95.6982 22.9204 96.0802 23.2749 96.4233L32.9855 105.63L27.1143 119.189L25.521 122.592C23.9532 125.958 25.4114 129.958 28.7778 131.526C29.5015 131.863 30.2795 132.068 31.0753 132.132L54.9195 134.056L66.3548 152.064C68.3431 155.2 72.4978 156.131 75.6344 154.143C75.9669 153.932 76.2803 153.692 76.571 153.427L86.1851 144.638L95.8125 153.607C98.5062 156.162 102.761 156.05 105.316 153.356C105.858 152.785 106.296 152.122 106.609 151.4L111.002 141.253L127.749 148.504C131.157 149.98 135.115 148.413 136.591 145.006C137.042 143.965 137.222 142.827 137.114 141.698L137.095 141.486C137.126 141.102 137.124 140.716 137.088 140.333L134.942 117.744L156.09 106.225C157.931 105.222 159.203 103.42 159.532 101.349Z"
        fill="#231F20" />
    <path
        d="M157.724 100.406C158.04 98.3382 157.381 96.2409 155.94 94.7255L153.615 92.2913L141.584 78.6526L149.617 59.7411C149.836 59.2381 149.984 58.7075 150.059 58.164C150.151 57.6388 150.181 57.1046 150.149 56.5724C150.108 56.0652 150.006 55.5647 149.846 55.0819C149.809 54.9575 149.768 54.8325 149.723 54.7085C149.585 54.2977 149.398 53.9053 149.165 53.5401C148.896 53.1139 148.578 52.7208 148.218 52.3688C147.855 51.9967 147.452 51.666 147.017 51.3828C146.602 51.1218 146.158 50.9125 145.693 50.7594C145.217 50.5822 144.722 50.4602 144.219 50.3958L122.406 47.8699C122.272 46.5869 122 45.3221 121.595 44.0973C121.162 42.7798 120.557 41.5251 119.796 40.3658C118.336 37.5753 115.952 35.379 113.051 34.1532L108.717 25.4402C107.785 23.5491 106.013 22.211 103.939 21.8327C101.865 21.4489 99.7316 22.0549 98.1695 23.4713L82.5706 37.6891L66.0242 29.2586C62.7075 27.5873 58.6639 28.921 56.9925 32.2377C56.4975 33.2201 56.251 34.3089 56.2746 35.4087L56.5621 48.4995L37.0051 48.9467C36.4511 48.9587 35.9013 49.0459 35.3707 49.2058C34.9484 49.3166 34.538 49.4688 34.1455 49.66C33.6546 49.9067 33.198 50.2162 32.7871 50.5807C32.546 50.7812 32.3192 50.9983 32.1086 51.2305L32.1074 51.2291C32.028 51.3173 31.9521 51.4079 31.8789 51.5005L31.8326 51.56L31.8195 51.5758C31.7187 51.7075 31.6221 51.8437 31.5317 51.9843L31.5324 51.9846C31.498 52.0394 31.4633 52.0968 31.4293 52.1546C31.3812 52.2348 31.336 52.3163 31.2921 52.3992C31.1609 52.6428 31.0439 52.8938 30.9416 53.1508C30.7559 53.5874 30.6191 54.0432 30.5337 54.5099C30.4294 55.1073 30.4111 55.7165 30.4794 56.3191C30.5064 56.6684 30.5625 57.0149 30.6471 57.355L30.6463 57.3546C30.6637 57.4239 30.6909 57.5223 30.7111 57.5911L35.7378 74.853L22.0139 85.255C21.6387 85.5476 21.2965 85.8802 20.9932 86.2468C20.688 86.599 20.4193 86.9813 20.1914 87.3879C19.9584 87.8152 19.7765 88.2685 19.6497 88.7383C19.5217 89.1569 19.4361 89.5872 19.394 90.0229C19.3894 90.0746 19.3857 90.1267 19.3827 90.179C19.377 90.2562 19.3736 90.3343 19.3713 90.412C19.3568 90.9017 19.4022 91.3914 19.5063 91.8702C19.5862 92.3224 19.7154 92.7643 19.8918 93.1883C20.0667 93.5921 20.2799 93.9782 20.5284 94.3413C20.7972 94.755 21.1119 95.1369 21.4664 95.48L31.177 104.686L25.3058 118.245L23.7125 121.648C22.1447 125.015 23.6028 129.015 26.9692 130.582C27.693 130.919 28.471 131.125 29.2668 131.189L53.1109 133.113L64.5461 151.12C66.5344 154.257 70.689 155.188 73.8256 153.199C74.1582 152.989 74.4716 152.749 74.7623 152.483L84.3764 143.694L94.0038 152.663C96.6975 155.219 100.953 155.106 103.508 152.412C104.05 151.841 104.487 151.179 104.8 150.456L109.194 140.309L125.94 147.561C129.348 149.036 133.307 147.47 134.782 144.062C135.233 143.022 135.413 141.884 135.306 140.755L135.287 140.542C135.318 140.159 135.315 139.773 135.28 139.39L133.133 116.8L154.281 105.282C156.123 104.278 157.394 102.477 157.724 100.406Z"
        fill="white" />
    <path
        d="M63.4692 56.4297L63.0329 36.6243L83.6995 47.1522L102.736 29.8018L115.362 55.1804L143.453 57.0697L133.366 80.8177L151.088 99.3649L125.934 113.066L128.622 141.386L105.704 131.463L98.6387 147.78L84.4278 134.539L70.2354 147.517L56.9987 126.675L29.8163 124.481L39.6626 103.456L26.1005 90.5948L43.8263 78.5476L37.1628 55.6648L63.4692 56.4297Z"
        fill="#22093A" stroke="#22093A" stroke-width="1.14476" stroke-linecap="round" stroke-linejoin="round" />
    <path
        d="M63.4459 55.0653L63.0102 35.2583L83.6762 45.7878L102.713 28.4374L115.339 53.816L143.457 57.071L133.343 79.4533L150.143 98.5029L125.909 111.701L128.597 140.021L105.681 130.098L98.6154 146.415L84.4045 133.175L70.2105 146.152L56.9754 125.311L30.2641 123.742L39.64 102.09L26.1049 90.5961L43.8029 77.1832L37.1672 55.666L63.4459 55.0653Z"
        fill="#9736FF" stroke="#22093A" stroke-width="1.14476" stroke-linecap="round" stroke-linejoin="round" />
    <path
        d="M111.587 110.312C112.53 111.47 111.522 116.509 109.494 119.017C100.894 129.647 88.2722 123.058 88.2722 123.058C88.2722 123.058 78.8093 126.914 66.7615 119.985C54.4702 112.915 48.1583 103.566 52.4685 87.459C57.3793 69.1073 76.8922 65.4574 82.5704 63.2978C88.2486 61.1383 90.6196 58.5453 94.317 51.1594C98.0144 43.7736 104.606 38.6396 111.228 41.507C115.643 43.4185 118.235 50.7817 112.494 60.778C109.848 65.7526 105.962 69.9601 101.214 72.9933C101.214 72.9933 116.531 74.9335 119.995 82.6236C121.252 85.8324 121.006 89.4354 119.324 92.4435C121.237 96.0888 121.303 100.427 119.501 104.128C118.151 107.451 115.138 109.806 111.587 110.312Z"
        fill="#22093A" stroke="#22093A" stroke-width="1.14476" stroke-linecap="round" stroke-linejoin="round" />
    <path
        d="M119.325 92.4403C117.282 97.1593 110.464 100.516 99.5113 97.9652C89.5334 95.6417 84.1448 90.7145 86.7491 84.7003C90.5723 75.8711 103.844 81.6179 103.844 81.6179"
        fill="#22093A" />
    <path
        d="M119.325 92.4403C117.282 97.1593 110.464 100.516 99.5113 97.9652C89.5334 95.6417 84.1448 90.7145 86.7491 84.7003C90.5723 75.8711 103.844 81.6179 103.844 81.6179"
        stroke="#22093A" stroke-width="1.14476" stroke-linecap="round" stroke-linejoin="round" />
    <path
        d="M111.586 110.31C111.586 110.31 101.854 109.882 95.9731 109.787C82.4927 109.57 79.9021 96.8399 91.4942 95.1472"
        fill="#22093A" />
    <path
        d="M111.586 110.31C111.586 110.31 101.854 109.882 95.9731 109.787C82.4927 109.57 79.9021 96.8399 91.4942 95.1472"
        stroke="#22093A" stroke-width="1.14476" stroke-linecap="round" stroke-linejoin="round" />
    <path
        d="M100.961 110.272C97.8869 110.33 90.0337 107.96 86.6375 112.113C84.1341 115.535 84.8788 120.339 88.3008 122.842C88.9079 123.286 89.5771 123.639 90.2867 123.888"
        fill="#22093A" />
    <path
        d="M100.961 110.272C97.8869 110.33 90.0337 107.96 86.6375 112.113C84.1341 115.535 84.8788 120.339 88.3008 122.842C88.9079 123.286 89.5771 123.639 90.2867 123.888"
        stroke="#22093A" stroke-width="1.14476" stroke-linecap="round" stroke-linejoin="round" />
    <path
        d="M110.929 109.203C111.872 110.36 110.864 115.4 108.836 117.907C100.236 128.538 87.6141 121.949 87.6141 121.949C87.6141 121.949 78.1512 125.805 66.1033 118.875C53.8121 111.805 47.5002 102.457 51.8104 86.3496C56.7211 67.9979 76.234 64.3479 81.9122 62.1885C87.5903 60.029 89.9614 57.4359 93.6588 50.0501C97.3562 42.6643 103.948 37.5302 110.57 40.3976C114.984 42.3092 117.576 49.6723 111.836 59.6686C109.19 64.6433 105.304 68.8507 100.556 71.8839C100.556 71.8839 115.873 73.8241 119.337 81.5142C120.594 84.723 120.348 88.326 118.666 91.3342C120.579 94.9795 120.645 99.3172 118.843 103.019C117.493 106.341 114.479 108.696 110.929 109.203Z"
        fill="#FCC707" stroke="#22093A" stroke-width="1.14476" stroke-linecap="round" stroke-linejoin="round" />
    <path
        d="M118.669 91.331C116.625 96.0499 109.808 99.4063 98.8551 96.8558C88.8772 94.5324 83.4886 89.6052 86.0929 83.5909C89.916 74.7617 103.188 80.5085 103.188 80.5085"
        fill="#FCC707" />
    <path
        d="M118.669 91.331C116.625 96.0499 109.808 99.4063 98.8551 96.8558C88.8772 94.5324 83.4886 89.6052 86.0929 83.5909C89.916 74.7617 103.188 80.5085 103.188 80.5085"
        stroke="#22093A" stroke-width="1.14476" stroke-linecap="round" stroke-linejoin="round" />
    <path
        d="M110.93 109.203C110.93 109.203 101.198 108.775 95.3168 108.68C81.8364 108.462 79.2458 95.7325 90.8379 94.0398"
        stroke="#22093A" stroke-width="1.14476" stroke-linecap="round" stroke-linejoin="round" />
    <path
        d="M103.103 108.897C100.029 108.955 89.377 106.852 85.9808 111.006C83.4774 114.428 84.2221 119.231 87.644 121.734C88.2512 122.179 88.9203 122.531 89.63 122.781"
        stroke="#22093A" stroke-width="1.14476" stroke-linecap="round" stroke-linejoin="round" />
</svg>