<svg width="109" height="104" viewBox="0 0 109 104" fill="none" xmlns="http://www.w3.org/2000/svg">
<g filter="url(#filter0_d_485_1103)">
<path d="M101.537 26.0117C98.6435 22.2925 94.6417 20.2434 90.2752 20.2434C89.5896 20.2443 88.9049 20.2933 88.2261 20.39C82.9763 21.1481 79.7112 23.9661 77.6335 26.5267C76.507 25.0962 75.0837 23.419 73.2134 21.4771C71.5469 17.2072 68.0565 10.8345 61.1509 6.45723C55.3647 2.78451 50.7193 1 46.9428 1C41.8325 1 38.7963 4.17922 37.938 7.48717C26.4943 8.69234 18.3192 14.7682 16.0984 20.2541C15.7268 21.164 15.5197 22.1327 15.4869 23.115C13.8087 24.0202 12.2301 25.099 10.7771 26.3336C1.06061 34.5909 1.45041 40.8421 2.55187 43.8317C2.96091 44.9605 3.60459 45.9897 4.44047 46.8514C5.27634 47.7132 6.28542 48.388 7.40115 48.8312C7.0081 50.3192 6.70714 51.83 6.49997 53.3551C5.57374 59.9495 6.49997 64.8882 9.22859 68.0174C10.6434 69.6992 12.6435 70.7817 14.8253 71.0464V71.1C15.3903 74.6154 15.9661 77.1223 16.6348 78.9855C18.7054 84.7538 22.6177 85.6193 24.7706 85.6193C26.6588 85.6193 30.167 84.9219 32.4594 80.2729C32.9077 79.4592 33.4296 78.6883 34.0186 77.9698C49.1565 96.4014 75.5021 100.607 81.8426 100.607C93.7191 100.607 98.5576 90.1288 103.8 69.4943C108.753 50.0757 107.924 34.2297 101.537 26.0117Z" fill="#141414"/>
</g>
<path d="M89.2353 27.4715C81.6967 28.5444 81.593 36.5765 78.2815 36.5765C74.97 36.5765 74.5194 33.0003 67.5852 25.9588C67.3992 25.7693 67.2276 25.6012 67.0166 25.4081C55.5406 14.6617 31.4266 18.3738 30.6541 46.3072C30.4074 55.2262 32.5388 62.5216 36.0684 68.4795C48.0915 88.7742 76.3325 93.459 81.8434 93.459C87.3542 93.459 91.2308 89.9221 96.8632 67.7356C103.422 42.0373 98.3223 26.1591 89.2353 27.4715ZM89.3247 68.7262C84.715 80.3345 81.8148 85.9633 75.181 83.7461C68.5472 81.5289 40.4921 71.3726 40.0487 48.1704C39.6625 27.9937 58.8307 27.4644 71.6477 41.322C75.4885 45.4776 78.2064 47.2621 81.1496 44.183C83.7995 41.4186 87.0359 35.2247 90.1293 38.9832C93.2227 42.7418 95.0001 54.4645 89.3354 68.7262H89.3247Z" fill="#EF112C" stroke="#1D1D1B" stroke-width="1.78808" stroke-linecap="round" stroke-linejoin="round"/>
<path d="M67.0272 25.4071C55.5513 14.6607 31.4371 18.3728 30.6647 46.3062C30.4179 55.2252 32.5493 62.5206 36.079 68.4785C31.9986 67.8526 27.0671 75.0586 26.0658 77.1185C24.8069 79.6719 23.4051 79.2642 21.9067 69.9661C20.4083 60.6681 25.4006 56.4947 23.0725 56.6592C20.7444 56.8237 17.7512 60.6538 16.9179 62.9819C16.0847 65.31 12.2689 63.8116 13.5921 54.3347C14.9153 44.8579 18.7489 42.8588 21.7422 40.1981C24.7354 37.5375 16.0883 40.5307 12.0865 42.0291C8.0848 43.5275 7.26585 38.7033 15.4124 31.7834C23.5589 24.8635 32.2203 28.057 30.5431 25.9614C28.8659 23.8658 21.735 25.3964 22.7328 22.9288C23.7305 20.4613 29.3844 15.4189 39.1831 14.5463C48.9818 13.6737 51.3421 16.5847 50.491 14.5463C49.6398 12.5079 44.5045 11.0953 44.837 9.34654C45.1696 7.59779 48.8281 7.10428 57.3107 12.49C63.3544 16.3201 65.9901 22.2851 67.0272 25.4071Z" fill="#4DB242" stroke="#1D1D1B" stroke-width="1.78808" stroke-linecap="round" stroke-linejoin="round"/>
<path d="M90.1391 39.0003C87.0457 35.2417 83.8093 41.4357 81.1594 44.2C78.2162 47.2684 75.4983 45.4839 71.6575 41.3391C58.8405 27.4814 39.6723 28.0107 40.0585 48.1875C40.5019 71.3896 68.5641 81.5531 75.1907 83.7632C81.8174 85.9732 84.7248 80.3443 89.3345 68.7433C94.9991 54.4636 93.2325 42.7517 90.1391 39.0003ZM79.1209 71.7186C79.1209 71.7186 57.8892 65.8644 54.4454 49.7467C53.0149 43.0127 55.4002 41.1067 59.2053 42.0615C63.2714 43.0807 69.2185 48.7596 73.299 52.5182C78.0553 56.8954 78.7669 55.6473 81.4204 52.9545C84.4745 49.854 86.4271 47.7333 86.7847 50.3224C87.8969 58.0326 79.1209 71.7186 79.1209 71.7186Z" fill="#FFC200" stroke="#1D1D1B" stroke-width="1.78808" stroke-linecap="round" stroke-linejoin="round"/>
<path d="M79.1205 71.7188C79.1205 71.7188 57.8888 65.8646 54.4449 49.7468C53.0145 43.0129 55.3998 41.1068 59.2048 42.0616C63.2709 43.0808 69.2181 48.7598 73.2985 52.5183C78.0548 56.8956 78.7665 55.6475 81.42 52.9546C84.474 49.8541 86.4266 47.7334 86.7842 50.3226C87.8964 58.0328 79.1205 71.7188 79.1205 71.7188Z" fill="#5CC9FF" stroke="#1D1D1B" stroke-width="1.78808" stroke-linecap="round" stroke-linejoin="round"/>
<defs>
<filter id="filter0_d_485_1103" x="0.569533" y="0.642383" width="107.861" height="102.468" filterUnits="userSpaceOnUse" color-interpolation-filters="sRGB">
<feFlood flood-opacity="0" result="BackgroundImageFix"/>
<feColorMatrix in="SourceAlpha" type="matrix" values="0 0 0 0 0 0 0 0 0 0 0 0 0 0 0 0 0 0 127 0" result="hardAlpha"/>
<feOffset dy="1.07285"/>
<feGaussianBlur stdDeviation="0.715233"/>
<feComposite in2="hardAlpha" operator="out"/>
<feColorMatrix type="matrix" values="0 0 0 0 0 0 0 0 0 0 0 0 0 0 0 0 0 0 0.25 0"/>
<feBlend mode="normal" in2="BackgroundImageFix" result="effect1_dropShadow_485_1103"/>
<feBlend mode="normal" in="SourceGraphic" in2="effect1_dropShadow_485_1103" result="shape"/>
</filter>
</defs>
</svg>
