<svg width="141" height="150" viewBox="0 0 141 150" fill="none" xmlns="http://www.w3.org/2000/svg">
<g clip-path="url(#clip0_487_1109)">
<path d="M89.2977 122.552C90.794 117.761 89.8161 112.381 86.4049 106.566C85.4143 104.879 84.9237 103.503 85.0555 102.788C85.1873 102.072 86.0843 100.752 87.0507 99.4072C87.4692 98.8127 87.9028 98.1965 88.3553 97.5249C88.6215 97.1466 89.6125 96.066 90.4136 95.2033C93.8736 91.4355 99.6926 85.1658 102.358 77.0844C104.733 69.8905 105.326 58.8798 94.6775 47.2309C96.6319 44.5205 98.0312 41.4504 98.795 38.1974C99.5588 34.9443 99.6721 31.5723 99.1284 28.2753C98.9734 27.331 98.7327 26.4027 98.4091 25.502C96.877 21.1909 93.8361 18.392 91.5606 16.7905C89.4501 15.3051 85.3453 12.9899 81.5261 14.1733C80.5891 14.4564 79.7207 14.9302 78.9755 15.5651C78.2304 16.1999 77.6246 16.982 77.1962 17.8622C76.4102 19.4883 76.2367 21.3431 76.7075 23.0868C76.2901 23.387 75.8532 23.6978 75.4751 23.9651C74.4567 24.6829 73.3038 25.5 72.0793 26.4244C69.6102 28.2321 67.8281 30.8249 67.0251 33.7779C53.0639 33.4442 40.7661 41.3288 35.4549 48.5823C25.3439 62.3743 21.3425 76.098 23.5116 89.3395C25.6058 102.096 33.6542 113.972 46.132 122.758C48.5478 124.468 51.0737 126.018 53.6931 127.396L53.4398 128.859C53.1208 130.69 53.2807 132.573 53.9039 134.324C54.527 136.075 55.5924 137.636 56.9965 138.854C57.3007 139.116 57.619 139.365 57.9405 139.591C59.642 140.805 61.6552 141.507 63.7424 141.614C66.241 141.716 68.6965 140.939 70.681 139.418C72.6654 137.896 74.053 135.726 74.6019 133.286C76.6569 133.255 78.6849 132.812 80.5658 131.984C86.1561 129.392 88.3962 125.429 89.2977 122.552Z" fill="black"/>
<path d="M72.6316 57.1471C71.6967 57.7845 70.5948 58.1323 69.4634 58.1471C68.332 58.1618 67.2213 57.8427 66.2702 57.2298C65.3191 56.6169 64.5697 55.7373 64.1157 54.7009C63.6616 53.6645 63.5231 52.5173 63.7173 51.4026C63.9116 50.2879 64.43 49.2552 65.2079 48.4335C65.9858 47.6118 66.9885 47.0375 68.0909 46.7824C69.1933 46.5274 70.3464 46.6029 71.4061 46.9994C72.4658 47.396 73.3852 48.0961 74.0493 49.0122L72.6316 57.1471Z" fill="#3980FF" stroke="black" stroke-width="1.6523" stroke-linecap="round" stroke-linejoin="round"/>
<path d="M90.9691 67.5594C90.5415 68.1678 89.9981 68.686 89.3701 69.0843C88.7422 69.4826 88.0418 69.7533 87.3092 69.8809C86.5766 70.0085 85.826 69.9905 85.1003 69.8279C84.3746 69.6653 83.6881 69.3613 83.08 68.9333C82.8725 68.7863 82.675 68.6257 82.4888 68.4526L84.6511 58.898C85.7801 58.545 86.9912 58.5546 88.1144 58.9253C89.2377 59.296 90.2166 60.0093 90.9136 60.9649C91.6107 61.9205 91.9909 63.0705 92.0008 64.2533C92.0108 65.436 91.65 66.5922 90.9691 67.5594Z" fill="#BE22FF" stroke="black" stroke-width="1.6523" stroke-linecap="round" stroke-linejoin="round"/>
<path d="M62.2048 117.034C58.1133 114.7 55.9677 110.721 57.3712 107.825C58.4161 105.663 61.1594 104.677 64.2948 105.045L62.2048 117.034Z" stroke="black" stroke-width="1.6523" stroke-linecap="round" stroke-linejoin="round"/>
<path d="M80.6911 109.916C75.9461 101.844 79.5292 98.826 82.8323 93.8688C86.1353 88.9116 108.554 72.1879 89.7484 51.6707C88.8121 50.6507 87.8652 49.7149 86.9076 48.8631L84.6354 58.9182C85.5538 58.632 86.53 58.5845 87.4718 58.7802C88.4136 58.976 89.29 59.4085 90.0183 60.037C90.7465 60.6654 91.3026 61.4691 91.6341 62.3722C91.9655 63.2752 92.0613 64.2478 91.9125 65.1982C91.7638 66.1486 91.3752 67.0453 90.7836 67.8039C90.1921 68.5624 89.4169 69.1577 88.5314 69.5335C87.6459 69.9093 86.6793 70.0533 85.7227 69.9518C84.7661 69.8503 83.8512 69.5067 83.0643 68.9535C82.8568 68.8065 82.6593 68.6459 82.4731 68.4728L73.0872 110.012C74.5338 111.975 75.0139 114.164 74.1477 115.935C73.8455 116.518 73.4286 117.035 72.9219 117.454C72.4152 117.873 71.8292 118.186 71.199 118.373C68.9684 119.131 65.9448 118.874 63.0443 117.483C62.7436 117.336 62.4722 117.193 62.201 117.039C58.1096 114.705 55.964 110.726 57.3675 107.83C58.4123 105.668 61.1556 104.681 64.291 105.049L72.6322 57.146C71.6974 57.7835 70.5954 58.1313 69.464 58.146C68.3326 58.1607 67.222 57.8417 66.2708 57.2288C65.3197 56.6158 64.5703 55.7362 64.1163 54.6998C63.6623 53.6634 63.5237 52.5162 63.718 51.4015C63.9122 50.2868 64.4307 49.2541 65.2085 48.4324C65.9864 47.6107 66.9892 47.0364 68.0915 46.7814C69.1939 46.5263 70.347 46.6018 71.4067 46.9984C72.4665 47.3949 73.3858 48.095 74.0499 49.0111L75.2902 41.8747C60.4357 36.9077 45.97 45.4325 40.787 52.5095C14.1616 88.8817 40.5796 114.935 61.0649 123.574C63.752 124.738 66.5509 125.625 69.4182 126.22C72.9631 126.925 75.9069 126.859 77.7798 125.995C83.5531 123.31 85.3719 117.878 80.6911 109.916ZM43.5882 57.6128C44.2221 56.7122 45.1087 56.0198 46.1361 55.6231C47.1635 55.2264 48.2854 55.1433 49.36 55.3843C50.4346 55.6252 51.4137 56.1795 52.1733 56.9768C52.933 57.7742 53.4391 58.7789 53.6277 59.8639C53.8163 60.949 53.679 62.0656 53.233 63.0725C52.787 64.0795 52.0525 64.9316 51.1222 65.5211C50.192 66.1105 49.1078 66.4109 48.0068 66.3843C46.9059 66.3576 45.8375 66.005 44.9369 65.3712C43.7292 64.5212 42.9087 63.2263 42.6557 61.7713C42.4028 60.3164 42.7382 58.8205 43.5882 57.6128ZM38.4073 82.9971C37.5062 82.3645 36.813 81.4789 36.4154 80.4523C36.0178 79.4257 35.9336 78.3042 36.1736 77.2297C36.4135 76.1553 36.9667 75.1761 37.7633 74.4161C38.5598 73.6562 39.5639 73.1495 40.6484 72.9603C41.7329 72.7711 42.8492 72.9078 43.8561 73.3532C44.8629 73.7986 45.715 74.5326 46.3045 75.4624C46.8941 76.3921 47.1946 77.4759 47.1681 78.5765C47.1416 79.6771 46.7893 80.7451 46.1556 81.6454C45.3068 82.8514 44.014 83.6712 42.5612 83.9246C41.1083 84.1781 39.6143 83.8445 38.4073 82.9971ZM41.9979 101.333C41.1802 100.758 40.5513 99.9537 40.1908 99.0215C39.8302 98.0893 39.7543 97.0711 39.9725 96.0958C40.1907 95.1204 40.6933 94.2316 41.4166 93.5419C42.14 92.8522 43.0517 92.3925 44.0363 92.221C45.021 92.0495 46.0344 92.1739 46.9483 92.5784C47.8623 92.983 48.6358 93.6495 49.1709 94.4936C49.706 95.3378 49.9788 96.3217 49.9546 97.3209C49.9305 98.32 49.6106 99.2896 49.0353 100.107C48.6539 100.65 48.1692 101.112 47.609 101.467C47.0488 101.823 46.4241 102.064 45.7706 102.178C45.1171 102.292 44.4475 102.276 43.8002 102.131C43.1528 101.986 42.5404 101.715 41.9979 101.333Z" fill="#FCBA4F" stroke="black" stroke-width="1.6523" stroke-linecap="round" stroke-linejoin="round"/>
<path d="M49.0257 100.101C48.4505 100.919 47.6455 101.548 46.7125 101.909C45.7795 102.269 44.7606 102.344 43.7847 102.125C42.8088 101.906 41.9199 101.402 41.2306 100.678C40.5413 99.9528 40.0826 99.0398 39.9126 98.0542C39.7426 97.0686 39.8689 96.0547 40.2756 95.1409C40.6823 94.2271 41.351 93.4546 42.197 92.9212C43.0431 92.3878 44.0285 92.1175 45.0283 92.1445C46.0281 92.1715 46.9974 92.4946 47.8134 93.0729C48.9047 93.8452 49.6451 95.0188 49.8724 96.3363C50.0996 97.6537 49.7951 99.0075 49.0257 100.101Z" fill="#FF5C5C" stroke="black" stroke-width="1.6523" stroke-linecap="round" stroke-linejoin="round"/>
<path d="M40.3934 83.8786C43.3924 84.5511 46.3687 82.665 47.0411 79.6661C47.7136 76.6671 45.8275 73.6908 42.8286 73.0184C39.8296 72.3459 36.8533 74.2319 36.1809 77.2309C35.5084 80.2299 37.3944 83.2062 40.3934 83.8786Z" fill="#5CC9FF" stroke="black" stroke-width="1.6523" stroke-linecap="round" stroke-linejoin="round"/>
<path d="M52.6932 64.021C52.0597 64.9222 51.1732 65.6153 50.1457 66.0125C49.1182 66.4098 47.996 66.4933 46.9211 66.2526C45.8461 66.0119 44.8667 65.4578 44.1068 64.6603C43.3468 63.8628 42.8405 62.8579 42.6518 61.7726C42.4631 60.6873 42.6006 59.5704 43.0468 58.5633C43.4931 57.5561 44.228 56.7039 45.1587 56.1146C46.0894 55.5252 47.1739 55.2252 48.2752 55.2523C49.3764 55.2795 50.4448 55.6327 51.3453 56.2673C52.5515 57.1173 53.371 58.4114 53.6238 59.8652C53.8765 61.3191 53.5418 62.8138 52.6932 64.021Z" fill="#1BAA63" stroke="black" stroke-width="1.6523" stroke-linecap="round" stroke-linejoin="round"/>
<path d="M71.1997 118.374L73.0918 110.007C74.5384 111.971 75.0185 114.159 74.1523 115.93C73.8502 116.515 73.4329 117.033 72.9256 117.453C72.4182 117.873 71.8312 118.186 71.1997 118.374V118.374Z" stroke="black" stroke-width="1.6523" stroke-linecap="round" stroke-linejoin="round"/>
<path d="M71.198 118.373C68.9675 119.131 65.9439 118.874 63.0434 117.483C62.7427 117.336 62.4713 117.194 62.2001 117.039L64.2874 105.048L72.6313 57.1464L74.049 49.0115L75.2892 41.8751L75.3082 41.8481L75.5269 40.4866C75.5269 40.4866 83.6829 36.2132 88.0791 43.6837L87.6848 45.4267L86.9077 48.8561L84.6356 58.9113L82.4836 68.457L73.0863 110.012L71.198 118.373Z" fill="#EF112C" stroke="black" stroke-width="1.6523" stroke-linecap="round" stroke-linejoin="round"/>
<path d="M64.0484 135.009C63.0284 134.941 62.0615 134.53 61.3054 133.842C60.7654 133.373 60.3565 132.772 60.1186 132.097C59.8808 131.423 59.8222 130.698 59.9486 129.994L61.0644 123.574C63.7515 124.738 66.5504 125.625 69.4176 126.22L68.1651 131.772C67.9634 132.707 67.4417 133.541 66.6901 134.132C65.9385 134.723 65.0041 135.033 64.0484 135.009Z" fill="#EF112C" stroke="black" stroke-width="1.6523" stroke-linecap="round" stroke-linejoin="round"/>
<path d="M87.6932 45.4238L88.0875 43.6808C83.6875 36.2157 75.5289 40.4873 75.5289 40.4873L75.2967 41.8392C74.6573 41.2086 74.1469 40.4596 73.7938 39.6339C73.2715 37.4478 74.6225 33.2544 80.1504 33.9324C85.6782 34.6103 90.2404 34.9722 92.1874 27.7675C92.3756 28.2875 92.5149 28.8238 92.6034 29.3697C93.5827 35.385 91.6656 40.9741 87.6932 45.4238Z" fill="white" stroke="black" stroke-width="1.6523" stroke-linecap="round" stroke-linejoin="round"/>
<path d="M80.1462 33.9261C74.6088 33.2617 73.2673 37.4415 73.7896 39.6276C72.7425 37.1651 73.0576 33.9844 76.0598 31.7169C80.0957 28.6696 83.5128 26.7426 83.9763 25.1655C84.4397 23.5883 82.1744 20.8989 83.4911 20.4921C84.6833 20.1188 90.4081 22.7619 92.1908 27.7505C90.2407 34.9652 85.6913 34.6081 80.1462 33.9261Z" fill="#3980FF" stroke="black" stroke-width="1.6523" stroke-linecap="round" stroke-linejoin="round"/>
<path d="M66.1531 125.406C64.9973 126.261 62.2321 128.186 60.1809 128.666L61.0651 123.574C62.7251 124.281 64.4238 124.892 66.1531 125.406Z" fill="black"/>
</g>
<defs>
<clipPath id="clip0_487_1109">
<rect width="87.2879" height="119.746" fill="white" transform="translate(68.9863 0.931641) rotate(35.1382)"/>
</clipPath>
</defs>
</svg>
