<svg width="164" height="164" viewBox="0 0 164 164" fill="none" xmlns="http://www.w3.org/2000/svg">
<g clip-path="url(#clip0_548_2119)">
<path d="M107.7 62.8959C97.062 53.7568 79.1531 51.7591 65.8181 67.0024C54.4002 79.9756 64.097 93.1333 59.2433 98.2306C58.6298 98.8818 58.0348 99.4859 57.4543 100.064C57.4251 100.023 57.4078 99.9977 57.4078 99.9977C57.4078 99.9977 53.5327 102.374 50.8321 106.24L50.7324 106.142C50.7324 106.142 50.7653 106.194 50.8132 106.268C49.813 107.706 48.9748 109.345 48.5607 111.149L48.2659 110.78C48.2659 110.78 48.3626 110.936 48.5479 111.218C47.7758 114.679 48.5588 118.725 52.7181 123.045C58.8038 129.366 64.9242 128.153 69.5386 125.34C70.6776 126.144 71.3931 126.608 71.3931 126.608L69.889 125.118C71.4677 124.112 72.8606 122.934 73.9994 121.827C74.0479 121.852 74.0749 121.865 74.0749 121.865L74.0178 121.81C76.0864 119.796 77.319 118.034 77.319 118.034C77.319 118.034 77.2752 118.016 77.2115 117.988C87.0353 109.654 94.2728 117.022 103.986 110.468C116.179 102.266 129.471 81.6884 107.7 62.8959Z" fill="#22093A" stroke="#22093A" stroke-miterlimit="10" stroke-linecap="round" stroke-linejoin="round"/>
<path d="M95.7919 31.7476C101.474 33.8628 107.528 42.9624 102.227 53.4877C96.9257 64.0129 87.7198 65.9425 81.5222 63.5836C75.9304 61.4553 70.4757 54.0737 75.7457 42.6886C80.0632 33.3612 87.4459 28.6408 95.7919 31.7476Z" fill="#22093A" stroke="#22093A" stroke-miterlimit="10" stroke-linecap="round" stroke-linejoin="round"/>
<path d="M93.1433 41.3215C94.1239 41.2633 94.1687 42.9931 91.7252 47.8746C89.2816 52.756 87.0376 54.9191 85.9743 54.9627C85.015 55.0019 84.728 52.9912 87.2699 47.7825C89.3524 43.5151 91.7028 41.4071 93.1433 41.3215Z" fill="#22093A" stroke="#22093A" stroke-miterlimit="10" stroke-linecap="round" stroke-linejoin="round"/>
<path d="M83.0329 39.1509C87.7099 42.7378 93.5439 29.4986 74.5888 21.0893C56.4326 13.0345 42.9008 37.0217 54.3272 48.8087C60.8586 55.5463 75.0081 59.5118 76.8409 44.6501C77.7398 37.3612 78.1736 35.424 83.0329 39.1509Z" fill="#22093A" stroke="#22093A" stroke-miterlimit="10" stroke-linecap="round" stroke-linejoin="round"/>
<path d="M116.546 43.021C122.228 45.1362 128.282 54.2358 122.981 64.7611C117.68 75.2864 108.474 77.2159 102.276 74.857C96.6843 72.7287 91.2296 65.3472 96.4996 53.962C100.817 44.6346 108.2 39.9142 116.546 43.021Z" fill="#22093A" stroke="#22093A" stroke-miterlimit="10" stroke-linecap="round" stroke-linejoin="round"/>
<path d="M112.695 53.0177C113.676 52.9595 114.923 54.2664 112.479 59.1479C110.036 64.0294 108.218 64.8574 107.155 64.9009C106.196 64.9402 105.482 64.2646 108.024 59.0559C110.107 54.7885 111.255 53.1033 112.695 53.0177Z" fill="#22093A" stroke="#22093A" stroke-miterlimit="10" stroke-linecap="round" stroke-linejoin="round"/>
<path d="M133.705 52.5193C126.177 48.7604 116.875 68.8061 115.088 78.1766C114.236 82.6407 129.944 90.9938 137.515 85.0372C145.278 78.9289 152.353 61.8306 133.705 52.5193Z" fill="#22093A" stroke="#22093A" stroke-miterlimit="10" stroke-linecap="round" stroke-linejoin="round"/>
<path d="M131.771 66.6056C129.972 65.7075 127.067 71.1487 127.323 72.7356C127.493 73.7914 130.32 75.1857 131.997 74.3258C133.674 73.4658 136.226 68.8302 131.771 66.6056Z" fill="#22093A" stroke="#22093A" stroke-miterlimit="10" stroke-linecap="round" stroke-linejoin="round"/>
<path d="M94.5907 29.3901C100.273 31.5053 106.327 40.6049 101.026 51.1302C95.7246 61.6555 86.5186 63.585 80.3211 61.2262C74.7292 59.0978 69.2745 51.7163 74.5445 40.3312C78.862 31.0037 86.2448 26.2833 94.5907 29.3901Z" fill="#9736FF" stroke="#22093A" stroke-miterlimit="10" stroke-linecap="round" stroke-linejoin="round"/>
<path d="M91.9421 38.9641C92.9228 38.9059 92.9676 40.6356 90.524 45.5171C88.0804 50.3986 85.8365 52.5617 84.7732 52.6052C83.8138 52.6445 83.5268 50.6338 86.0687 45.425C88.1512 41.1577 90.5017 39.0497 91.9421 38.9641Z" fill="#22093A" stroke="#22093A" stroke-miterlimit="10" stroke-linecap="round" stroke-linejoin="round"/>
<path d="M76.3254 32.6316C81.0023 36.2186 92.3429 27.1415 73.3877 18.7323C55.2316 10.6775 41.6998 34.6646 53.1262 46.4517C59.6576 53.1892 73.807 57.1548 75.6399 42.293C76.5388 35.0042 69.3611 32.128 65.7206 35.0122C62.08 37.8964 65.0604 43.9107 65.0604 43.9107C59.0379 40.9606 58.7926 31.7927 64.7966 29.1899C68.5339 27.5698 71.4661 28.9048 76.3254 32.6316Z" fill="#9736FF" stroke="#22093A" stroke-miterlimit="10" stroke-linecap="round" stroke-linejoin="round"/>
<path d="M115.345 40.6636C121.027 42.7788 127.081 51.8784 121.78 62.4037C116.478 72.929 107.273 74.8585 101.075 72.4996C95.4831 70.3713 90.0284 62.9898 95.2984 51.6046C99.6159 42.2772 106.999 37.5568 115.345 40.6636Z" fill="#9736FF" stroke="#22093A" stroke-miterlimit="10" stroke-linecap="round" stroke-linejoin="round"/>
<path d="M111.494 50.6603C112.475 50.602 113.722 51.909 111.278 56.7905C108.835 61.672 107.017 62.5 105.954 62.5435C104.995 62.5828 104.281 61.9072 106.823 56.6984C108.906 52.4311 110.054 50.7458 111.494 50.6603Z" fill="#22093A" stroke="#22093A" stroke-miterlimit="10" stroke-linecap="round" stroke-linejoin="round"/>
<path d="M132.504 50.1619C124.976 46.403 115.674 66.4487 113.887 75.8192C113.035 80.2833 128.743 88.6364 136.314 82.6797C144.077 76.5715 151.152 59.4732 132.504 50.1619Z" fill="#9736FF" stroke="#22093A" stroke-miterlimit="10" stroke-linecap="round" stroke-linejoin="round"/>
<path d="M130.569 64.2481C128.771 63.3501 125.865 68.7913 126.121 70.3782C126.292 71.434 129.119 72.8283 130.796 71.9683C132.473 71.1084 135.025 66.4728 130.569 64.2481Z" fill="#22093A" stroke="#22093A" stroke-miterlimit="10" stroke-linecap="round" stroke-linejoin="round"/>
<path d="M106.151 61.935C95.5132 52.7958 77.6042 50.7982 64.2693 66.0415C52.8514 79.0147 62.5482 92.1723 57.6945 97.2697C51.957 103.359 47.5114 105.942 47.2743 110.838C47.0618 114.438 48.3501 118.715 54.3203 123.153C59.3661 126.925 65.4644 128.41 72.2461 120.466C83.8924 106.848 91.632 116.798 102.438 109.507C114.63 101.305 127.922 80.7275 106.151 61.935Z" fill="#FCC707" stroke="#22093A" stroke-miterlimit="10" stroke-linecap="round" stroke-linejoin="round"/>
<path d="M75.771 117.073C75.771 117.073 70.1921 114.805 65.1709 109.736C59.0868 103.711 55.86 99.0364 55.86 99.0364C55.86 99.0364 38.9421 109.383 51.1702 122.084C63.3983 134.785 75.771 117.073 75.771 117.073Z" fill="#22093A"/>
<path d="M60.4967 105.324C60.4967 105.324 81.5341 90.5869 75.9826 86.8778C71.997 84.2074 68.0996 95.8818 73.8144 98.585C79.5292 101.288 85.6364 94.701 82.8579 92.9905C79.2965 90.7607 68.8955 103.321 66.8011 111.137" stroke="#050038" stroke-miterlimit="10" stroke-linecap="round" stroke-linejoin="round"/>
<path d="M52.4922 101.712C52.4922 101.712 55.7108 106.818 61.0827 112.398C66.4545 117.978 72.5255 120.904 72.5255 120.904" stroke="white" stroke-miterlimit="10" stroke-linecap="round" stroke-linejoin="round"/>
<path d="M49.1836 105.181C49.1836 105.181 52.3315 110.214 57.562 115.646C62.7925 121.079 69.8443 125.647 69.8443 125.647" stroke="white" stroke-miterlimit="10" stroke-linecap="round" stroke-linejoin="round"/>
<path d="M46.7168 109.818C46.7168 109.818 49.514 114.34 54.2498 119.259" stroke="white" stroke-miterlimit="10" stroke-linecap="round" stroke-linejoin="round"/>
<path d="M33.5384 80.0325C37.9397 82.2025 36.5749 87.1459 31.7762 95.2629C27.529 102.447 23.568 108.647 20.2518 107.258C15.2081 105.146 16.5058 99.1547 21.1213 90.1659C25.7367 81.1772 29.8201 78.1993 33.5384 80.0325Z" fill="#22093A" stroke="#22093A" stroke-miterlimit="10" stroke-linecap="round" stroke-linejoin="round"/>
<path d="M34.0785 77.2428C36.4068 78.2206 39.0491 77.2159 39.9802 74.9987C40.9113 72.7816 39.7786 70.1915 37.4502 69.2138C35.1219 68.236 32.4796 69.2407 31.5485 71.4579C30.6174 73.6751 31.7501 76.2651 34.0785 77.2428Z" fill="#22093A" stroke="#22093A" stroke-miterlimit="10" stroke-linecap="round" stroke-linejoin="round"/>
<path d="M43.7944 84.4067C36.9735 81.001 28.5455 99.1635 26.9262 107.654C26.1547 111.698 40.3869 119.267 47.2464 113.87C54.2804 108.335 60.6909 92.8433 43.7944 84.4067Z" fill="#22093A" stroke="#22093A" stroke-miterlimit="10" stroke-linecap="round" stroke-linejoin="round"/>
<path d="M42.0421 97.1698C40.4124 96.3561 37.78 101.286 38.0119 102.724C38.1662 103.681 40.7279 104.944 42.2474 104.165C43.7669 103.386 46.079 99.1854 42.0421 97.1698Z" fill="#22093A" stroke="#22093A" stroke-miterlimit="10" stroke-linecap="round" stroke-linejoin="round"/>
<path d="M99.323 117.505C99.2324 114.292 88.5368 108.379 82.4679 113.493C78.5079 116.83 67.7432 130.962 73.9354 136.027C80.1276 141.093 86.9445 142.43 88.9994 138.362C91.0543 134.294 82.1313 129.689 82.1313 129.689C82.1313 129.689 90.0845 133.047 92.4825 128.967C94.8805 124.887 86.0682 122.34 86.0682 122.34C86.0682 122.34 99.5661 126.126 99.323 117.505Z" fill="#22093A" stroke="#22093A" stroke-miterlimit="10" stroke-linecap="round" stroke-linejoin="round"/>
<path d="M99.0437 149.464C102.228 150.446 105.347 148.862 107.199 145.621C109.203 142.115 118.204 124.986 109.376 120.065C104.782 117.504 98.6824 120.809 93.7782 125.785C88.4575 131.183 82.3056 140.293 85.7624 142.612C91.3152 146.339 102.387 130.633 102.387 130.633C102.387 130.633 92.8393 147.55 99.0437 149.464Z" fill="#22093A" stroke="#22093A" stroke-miterlimit="10" stroke-linecap="round" stroke-linejoin="round"/>
<path d="M56.3919 65.5751L52.9297 67.7746L49.6609 67.4569L51.9011 71.2203L51.5418 74.1882L54.8638 72.0173L58.2727 72.3063L56.1547 69.1883L56.3919 65.5751Z" fill="#FCC707"/>
<path d="M48.2271 80.076C47.8857 79.8837 47.7504 79.4612 47.9147 79.1066C51.8263 70.6913 51.7171 70.2986 44.0096 65.1314C43.6832 64.914 43.5812 64.4816 43.7731 64.1408C43.965 63.8001 44.3876 63.6631 44.7428 63.8295C53.1574 67.7407 53.5499 67.6305 58.7174 59.9224C58.9357 59.5973 59.3668 59.4946 59.7082 59.6869C60.0497 59.8791 60.1853 60.301 60.0202 60.6569C56.1084 69.0712 56.2176 69.4639 63.9257 74.6314C64.2521 74.8488 64.3541 75.2812 64.1622 75.622C63.9703 75.9628 63.5477 76.0997 63.1926 75.9333C54.7772 72.0218 54.3848 72.132 49.2179 79.8404C49 80.1649 48.5685 80.2682 48.2271 80.076ZM49.6618 67.4568C51.9097 69.5177 52.3959 71.2591 51.5426 74.188C53.6046 71.9398 55.3445 71.4519 58.2736 72.3061C56.0244 70.2444 55.5395 68.5037 56.3927 65.5749C54.3307 67.8231 52.5896 68.3103 49.6618 67.4568Z" fill="#22093A"/>
<path d="M97.5025 76.487L92.7969 77.8018L94.1116 82.5074L98.8173 81.1927L97.5025 76.487Z" fill="white"/>
<path d="M91.1102 87.8401C90.7687 87.6495 90.6321 87.2263 90.7985 86.8711C93.8988 80.1979 93.8115 79.8873 87.6996 75.7901C87.3752 75.5721 87.2718 75.1406 87.4641 74.7992C87.6563 74.4578 88.0788 74.3225 88.4334 74.4869C95.1059 77.5885 95.4172 77.5015 99.5157 71.3904C99.7328 71.0646 100.165 70.9625 100.506 71.1544C100.847 71.3464 100.984 71.7689 100.817 72.1241C97.716 78.796 97.803 79.1072 103.915 83.2044C104.239 83.4224 104.343 83.8538 104.15 84.1953C103.958 84.5367 103.536 84.672 103.181 84.5076C96.5085 81.406 96.1976 81.4923 92.1004 87.6042C91.883 87.9306 91.451 88.032 91.1102 87.8401ZM92.7968 77.8021C94.2029 79.2369 94.5704 80.5517 94.1127 82.508C95.5472 81.1009 96.8617 80.734 98.8176 81.1924C97.4119 79.7569 97.044 78.4428 97.503 76.4872C96.0679 77.8923 94.7531 78.2598 92.7968 77.8021Z" fill="#22093A"/>
<path d="M32.4896 78.7034C36.8909 80.8734 35.526 85.8168 30.7273 93.9337C26.4802 101.118 22.5192 107.318 19.203 105.929C14.1592 103.816 15.457 97.8256 20.0724 88.8368C24.6879 79.8481 28.7713 76.8702 32.4896 78.7034Z" fill="#9736FF" stroke="#22093A" stroke-miterlimit="10" stroke-linecap="round" stroke-linejoin="round"/>
<path d="M33.0297 75.9137C35.358 76.8915 38.0003 75.8868 38.9314 73.6696C39.8625 71.4525 38.7298 68.8624 36.4014 67.8847C34.073 66.9069 31.4308 67.9116 30.4997 70.1288C29.5686 72.346 30.7013 74.936 33.0297 75.9137Z" fill="#9736FF" stroke="#22093A" stroke-miterlimit="10" stroke-linecap="round" stroke-linejoin="round"/>
<path d="M42.7456 83.0776C35.9247 79.6719 27.4967 97.8344 25.8773 106.325C25.1059 110.369 39.3381 117.938 46.1976 112.541C53.2316 107.006 59.6421 91.5142 42.7456 83.0776Z" fill="#9736FF" stroke="#22093A" stroke-miterlimit="10" stroke-linecap="round" stroke-linejoin="round"/>
<path d="M40.9932 95.8407C39.3636 95.0269 36.7312 99.957 36.9631 101.395C37.1173 102.351 39.6791 103.615 41.1986 102.836C42.7181 102.056 45.0302 97.8563 40.9932 95.8407Z" fill="#22093A" stroke="#22093A" stroke-miterlimit="10" stroke-linecap="round" stroke-linejoin="round"/>
<path d="M98.2742 116.176C98.1836 112.963 87.4879 107.05 81.4191 112.164C77.4591 115.501 66.6944 129.632 72.8866 134.698C79.0787 139.764 85.8957 141.101 87.9506 137.033C90.0055 132.964 81.0825 128.36 81.0825 128.36C81.0825 128.36 89.0357 131.718 91.4337 127.638C93.8316 123.558 85.0193 121.011 85.0193 121.011C85.0193 121.011 98.5173 124.797 98.2742 116.176Z" fill="#9736FF" stroke="#22093A" stroke-miterlimit="10" stroke-linecap="round" stroke-linejoin="round"/>
<path d="M108.328 118.736C103.733 116.175 97.6335 119.48 92.7293 124.456C87.4087 129.854 81.2567 138.964 84.7135 141.283C87.2476 142.984 90.9298 140.635 94.1859 137.581L96.8618 139.42C95.5986 143.422 95.2203 147.279 97.9948 148.135C101.179 149.117 104.298 147.533 106.15 144.292C108.154 140.786 117.155 123.657 108.328 118.736ZM97.2226 134.437C99.63 131.724 101.338 129.304 101.338 129.304C101.338 129.304 99.8584 131.93 98.4423 135.227L97.2226 134.437Z" fill="#9736FF" stroke="#22093A" stroke-miterlimit="10" stroke-linecap="round" stroke-linejoin="round"/>
<path d="M34.1036 70.1208C34.1036 70.1208 32.4468 70.1748 32.1836 71.72" stroke="#D9BBFF" stroke-miterlimit="10" stroke-linecap="round" stroke-linejoin="round"/>
</g>
<defs>
<clipPath id="clip0_548_2119">
<rect width="120" height="120" fill="white" transform="translate(58.8789) rotate(29.3839)"/>
</clipPath>
</defs>
</svg>
