<svg width="121" height="82" viewBox="0 0 121 82" fill="none" xmlns="http://www.w3.org/2000/svg">
<path d="M117.594 41.7359C115.132 37.7802 111.525 34.44 106.802 31.7605C106.25 27.6732 104.503 23.8402 101.779 20.7428C97.2655 15.6217 90.2897 12.6878 82.686 12.6878C80.8306 12.6858 78.979 12.8547 77.1546 13.1925C72.7886 7.35744 65.4599 3.79158 56.933 3.79158C56.1123 3.79158 55.2916 3.82849 54.4709 3.89825C49.6289 1.94912 42.9362 0 35.5172 0C27.1175 0 19.6985 2.46205 13.4613 7.38615C8.89833 10.9602 5.80435 14.8954 4.25325 19.0768C-2.80463 31.8795 -0.982702 45.749 9.00502 54.6165C19.8052 64.198 31.2455 67.965 43.3547 71.9576C45.111 72.5362 46.9124 73.1271 48.759 73.7549C64.7048 79.155 76.2519 81.5514 86.215 81.5514C89.3659 81.5697 92.5117 81.2949 95.6118 80.7307C106.129 78.7323 115.083 71.9945 118.977 63.1393C122.091 55.987 121.595 48.1988 117.594 41.7359Z" fill="#1D1D1B"/>
<path d="M54.9925 54.3332C51.3609 53.1761 47.6391 51.9368 44.0527 50.6401C44.2333 43.3484 47.7458 29.1998 56.0676 23.9966C57.7126 22.9307 59.491 22.0863 61.3568 21.4854C62.3376 24.4439 61.3568 26.4587 61.3568 26.4587L65.649 28.375C56.482 37.3574 54.8981 49.0029 54.9925 54.3332Z" fill="#FFB6EA" stroke="#1D1D1B" stroke-width="2.05171" stroke-linecap="round" stroke-linejoin="round"/>
<path d="M63.5538 27.4413C57.3289 26.7437 50.5501 31.3847 47.4027 35.603C44.2554 39.8213 44.6001 27.0925 46.3441 25.525C48.088 23.9575 60.07 17.8516 60.5296 17.3181C60.9892 16.7847 64.3047 17.4905 65.0023 18.1881C65.6999 18.8856 63.5538 27.4413 63.5538 27.4413Z" fill="#1D1D1B"/>
<path d="M53.293 12.3009C49.5716 12.9508 46.0702 14.5161 43.1042 16.8557C32.0537 25.5057 29.7024 38.3618 29.5629 44.759C28.2129 44.1065 26.9737 43.4541 25.8698 42.814C16.3417 37.2292 9.29614 30.1344 11.7705 22.4118C12.6609 19.6132 14.8029 16.7326 18.5247 13.7946C30.3139 4.57419 45.3119 8.71045 53.293 12.3009Z" fill="#FFB6EA" stroke="#1D1D1B" stroke-width="2.05171" stroke-linecap="round" stroke-linejoin="round"/>
<path d="M94.0688 72.6378C82.6039 74.8126 68.2952 71.6858 51.3933 65.9574C37.0641 61.099 25.4145 58.1609 14.4625 48.4522C5.93968 40.8896 7.31023 30.114 11.7789 22.416C9.3168 30.1387 16.3501 37.2335 25.8782 42.8182C26.9697 43.4584 28.2089 44.1108 29.5713 44.7632C34.3042 46.9824 39.1501 48.952 44.0892 50.664C47.6756 51.9401 51.3974 53.1794 55.0289 54.357C60.2731 56.0271 65.3367 57.529 69.5673 58.7313C74.0113 59.9992 77.5362 60.9389 79.3827 61.4149C98.8411 66.4457 115.37 58.1691 110.651 46.0722C117.192 56.6673 108.185 69.9582 94.0688 72.6378Z" fill="#F94671" stroke="#1D1D1B" stroke-width="2.05171" stroke-linecap="round" stroke-linejoin="round"/>
<path d="M79.3507 61.3948C77.5041 60.9188 73.9793 59.9791 69.5353 58.7112C69.5107 51.7641 72.9534 38.3623 81.5378 32.9992C82.2477 32.556 82.9289 32.1785 83.5895 31.8379L87.4344 33.27C87.4415 34.0412 87.2357 34.7995 86.8394 35.4612L98.0622 39.9093C98.35 38.9287 98.5613 37.9272 98.6942 36.9138C104.615 39.3512 108.469 42.556 110.631 46.0521C115.338 58.149 98.8091 66.4256 79.3507 61.3948Z" fill="#FFB6EA" stroke="#1D1D1B" stroke-width="2.05171" stroke-linecap="round" stroke-linejoin="round"/>
<path d="M98.6816 36.9137L98.6035 36.8809" stroke="#1D1D1B" stroke-width="2.05171" stroke-linecap="round" stroke-linejoin="round"/>
<path d="M72.8999 23.1356C71.3585 23.8743 69.9026 24.7797 68.5585 25.8357C67.5436 26.6292 66.5737 27.4785 65.6533 28.3798L61.3611 26.4799C61.3611 26.4799 62.3418 24.4652 61.3611 21.5066C59.4953 22.1076 57.7168 22.9519 56.0718 24.0179C47.7418 29.221 44.2375 43.3696 44.057 50.6614C39.1179 48.9494 34.272 46.9798 29.5391 44.7607C29.6909 38.3634 32.0421 25.5074 43.0803 16.8574C46.0534 14.514 49.5637 12.9486 53.2938 12.3026C62.2926 10.7515 71.0985 15.0314 72.8999 23.1356Z" fill="#F94671" stroke="#1D1D1B" stroke-width="2.05171" stroke-linecap="round" stroke-linejoin="round"/>
<path d="M61.3594 21.5085C66.4681 19.9574 68.606 22.2307 68.606 22.2307" stroke="#1D1D1B" stroke-width="2.05171" stroke-linecap="round" stroke-linejoin="round"/>
<path d="M73.0823 43.4362C74.3133 39.0292 86.5292 35.3402 91.3876 37.2811C96.2461 39.222 86.8739 26.8174 86.8739 26.8174C86.8739 26.8174 78.3593 27.7283 77.7807 28.0197C77.2021 28.311 71.248 35.135 71.248 35.135L73.0823 43.4362Z" fill="#1D1D1B"/>
<path d="M98.6816 36.9136C98.5488 37.9269 98.3375 38.9284 98.0497 39.9091L86.8269 35.461C87.2231 34.7993 87.429 34.041 87.4219 33.2698C87.4356 32.3091 87.2542 31.3556 86.8884 30.4671C85.7442 30.8194 84.6355 31.2783 83.577 31.8377C82.9327 32.17 82.2515 32.5558 81.5252 32.9989C72.9409 38.3621 69.4981 51.7639 69.5227 58.711C65.2921 57.5087 60.2285 56.0068 54.9843 54.3367C54.8899 49.0023 56.4739 37.3609 65.6532 28.3826C66.5737 27.4813 67.5436 26.632 68.5584 25.8385C69.9026 24.7825 71.3584 23.8771 72.8999 23.1384C85.3373 17.1474 100.385 23.4831 98.6816 36.9136Z" fill="#F94671" stroke="#1D1D1B" stroke-width="2.05171" stroke-linecap="round" stroke-linejoin="round"/>
<path d="M86.8887 30.4648C91.9482 28.9506 94.0697 31.2034 94.0697 31.2034" stroke="#1D1D1B" stroke-width="2.05171" stroke-linecap="round" stroke-linejoin="round"/>
</svg>
