<svg width="151" height="149" viewBox="0 0 151 149" fill="none" xmlns="http://www.w3.org/2000/svg">
<path d="M109.384 66.4288L32.9668 85.7178L76.4563 79.8703L131.951 65.0868L109.384 66.4288Z" fill="#4ADE53" stroke="black" stroke-width="0.956791"/>
<path d="M55.1519 108.784C48.7099 110.5 31.5179 108.25 25.1055 95.0557L54.835 88.1707L60.0824 98.1565L55.1519 108.784Z" fill="black"/>
<path d="M54.1418 105.748L54.9378 92.8005L71.2158 90.1622C71.2158 90.1622 76.7935 108.335 70.6278 116.639C63.5502 126.171 40.8725 122.868 40.8725 122.868L33.5491 138.403L31.1268 103.813L54.1418 105.748Z" fill="#FF4C56"/>
<path d="M98.1443 81.2905L78.3508 88.2614L120.12 119.162L139.073 89.9151L122.821 94.2446L98.1443 81.2905Z" fill="#FF4C56"/>
<path d="M54.1418 105.748L54.9378 92.8005L71.2158 90.1622C71.2158 90.1622 76.7935 108.335 70.6278 116.639C63.5502 126.171 40.8725 122.868 40.8725 122.868L33.5491 138.403L31.1268 103.813L54.1418 105.748Z" stroke="black" stroke-width="0.956791"/>
<path d="M98.1443 81.2905L78.3508 88.2614L120.12 119.162L139.073 89.9151L122.821 94.2446L98.1443 81.2905Z" stroke="black" stroke-width="0.956791"/>
<path d="M133.142 64.7682L76.0618 79.9741L77.4127 89.4001L135.782 74.678L135.81 74.591C136.829 71.4452 137.925 68.0635 133.142 64.7682Z" fill="#EF77EF" stroke="black" stroke-width="0.956791"/>
<path d="M32.9679 85.7177L14.5586 32.1514L85.116 13.3552C87.1485 13.2494 88.3135 13.736 90.2414 16.6595L108.329 67.0287L32.9679 85.7177Z" fill="#48DF53" stroke="black" stroke-width="0.956791"/>
<path d="M38.5411 79.3564L23.332 35.0127L85.9075 18.3429L101.356 61.7738L38.5411 79.3564Z" fill="#6449FD" stroke="black" stroke-width="0.956791"/>
<path d="M6.44036 40.5232C8.57515 34.5281 10.8222 33.6635 13.926 31.5764L33.0967 86.2001L75.2707 80.1861C79.3662 81.2174 79.7609 87.48 77.6994 89.303L32.6441 97.0601C30.2658 97.6937 26.4419 96.2668 24.4012 91.6148L6.44036 40.5232Z" fill="#6448FF" stroke="black" stroke-width="0.956791"/>
<circle cx="30.873" cy="91.4496" r="5" transform="rotate(-14.9169 30.873 91.4496)" fill="white" stroke="black"/>
<path d="M25.4915 96.5053L5.98021 42.3167C5.73569 41.6376 5.73813 40.8891 6.02391 40.2263C7.61329 36.5401 9.56892 34.3681 13.4658 31.4455C14.2445 30.8615 15.1363 30.4447 16.0768 30.1941L85.7334 11.6379C86.6141 11.4033 87.5536 11.5818 88.2869 12.1229L89.5439 13.0504C91.3257 14.3652 92.6693 16.1872 93.3987 18.278L109.787 65.2528L133.299 64.1637C137.614 68.7061 137.42 71.8625 134.939 76.1455L105.95 83.868L123.436 93.1805L141.987 88.2388C142.255 88.1673 142.468 88.467 142.312 88.6968L120.112 121.49L78.5442 90.5107L73.7127 91.7977L74.4442 109.336C73.0244 119.546 66.195 124.987 59.7537 124.116L41.5563 123.789L32.3993 140.933C32.256 141.201 31.8504 141.111 31.8351 140.807L29.9666 103.592L25.4915 96.5053Z" stroke="black" stroke-width="4.5"/>
<path d="M50.4297 61.9199C67.7088 65.5479 74.5926 63.2335 82.8007 53.2964" stroke="black" stroke-width="4" stroke-linecap="round" stroke-linejoin="round"/>
</svg>
