<svg width="143" height="110" viewBox="0 0 143 110" fill="none" xmlns="http://www.w3.org/2000/svg">
<path fill-rule="evenodd" clip-rule="evenodd" d="M130.191 28.7743C130.66 29.8284 128.991 31.557 129.21 32.6864C129.425 33.797 131.623 34.7545 131.605 35.9269C131.588 37.0432 129.362 37.9699 129.144 39.1352C128.934 40.2292 130.689 41.8739 130.311 42.9989C129.955 44.0522 127.558 44.3321 127.058 45.407C126.588 46.4172 127.932 48.4153 127.342 49.4363C126.781 50.4022 124.372 50.2415 123.706 51.2149C123.072 52.139 124.101 54.3182 123.375 55.2439C122.684 56.1321 120.315 55.6589 119.54 56.5416C118.798 57.3873 119.578 59.6693 118.764 60.5098C117.979 61.3233 115.67 60.6205 114.821 61.4244C114.005 62.1989 114.576 64.5423 113.697 65.3097C112.844 66.054 110.6 65.1714 109.694 65.9044C108.813 66.618 109.212 68.9974 108.286 69.6977C107.38 70.3808 105.201 69.3449 104.252 70.0147C103.323 70.6697 103.569 73.0684 102.6 73.7078C101.651 74.3345 99.5409 73.1658 98.5536 73.776C97.5857 74.3751 97.6865 76.7854 96.6872 77.366C95.7011 77.9373 93.6613 76.6503 92.6428 77.2035C91.6413 77.748 91.6128 80.16 90.5818 80.6852C89.5649 81.2029 87.5969 79.8084 86.5524 80.3059C85.5079 80.8033 85.3655 83.2046 84.3089 83.675C83.2523 84.1453 81.3602 82.6497 80.3051 83.0869C79.25 83.5241 78.9556 85.9257 77.8913 86.3344C76.8102 86.7496 74.9988 85.1565 73.924 85.5363C72.8313 85.9229 72.4204 88.2951 71.3382 88.6503C70.235 89.0056 68.5144 87.3164 67.4215 87.6346C66.3083 87.9595 65.7636 90.31 64.6631 90.5956C63.539 90.8882 61.9217 89.0997 60.8132 89.3517C59.6793 89.6092 58.9919 91.9211 57.8779 92.1372C56.7348 92.3583 55.236 90.4682 54.1162 90.6451C52.9662 90.8274 52.1192 93.0861 50.9961 93.2216C49.8376 93.3612 48.4827 91.3665 47.3568 91.4567C46.1914 91.5495 45.1659 93.7333 44.0389 93.7741C42.8682 93.8159 41.696 91.7096 40.5701 91.6954C39.3962 91.6805 38.161 93.7534 37.0388 93.6771C35.8651 93.5972 34.9342 91.3731 33.8233 91.2257C32.6543 91.0705 31.1621 92.9675 30.0691 92.7379C28.9147 92.4926 28.327 90.1575 27.2646 89.8295C26.1313 89.4831 24.3189 91.0758 23.2982 90.6352C22.209 90.1635 22.1587 87.7598 21.2087 87.1833C20.1972 86.5679 18.0188 87.5992 17.177 86.8642C16.296 86.0956 17.0545 83.8182 16.3728 82.9156C15.6799 81.9982 13.2803 82.0867 12.8089 81.0278C12.3375 79.9689 14.0091 78.245 13.7908 77.1153C13.5763 76.0047 11.3777 75.0472 11.3959 73.8748C11.412 72.7579 13.6385 71.8318 13.8568 70.6655C14.0671 69.5724 12.3103 67.9272 12.6901 66.8028C13.0458 65.7495 15.4413 65.469 15.9423 64.3951C16.4134 63.3844 15.0677 61.3867 15.658 60.3648C16.2188 59.399 18.6261 59.5601 19.294 58.5872C19.9279 57.6631 18.8986 55.4839 19.6248 54.5582C20.3154 53.6703 22.684 54.1436 23.4605 53.2605C24.2034 52.4143 23.4224 50.1328 24.2373 49.2918C25.0205 48.4788 27.3308 49.1811 28.1797 48.3772C29.0012 47.6006 28.4247 45.2594 29.3037 44.492C30.1556 43.7471 32.4012 44.6303 33.3068 43.8963C34.1867 43.1831 33.7886 40.8042 34.7149 40.1039C35.621 39.4208 37.7989 40.4572 38.7491 39.787C39.6772 39.1324 39.4315 36.7333 40.4002 36.0942C41.3498 35.4672 43.4601 36.6358 44.4465 36.0261C45.4143 35.4269 45.3131 33.0157 46.3138 32.4356C47.2989 31.8647 49.3397 33.1514 50.3568 32.5976C51.3583 32.0531 51.3881 29.6416 52.4192 29.1165C53.4502 28.5913 55.4041 29.9932 56.4482 29.4948C57.4785 29.0048 57.6355 26.5971 58.6911 26.1271C59.7467 25.6572 61.6408 27.1519 62.6945 26.7142C63.7482 26.2765 64.0444 23.8764 65.1096 23.4672C66.1908 23.0521 68.0017 24.6442 69.0765 24.2644C70.1687 23.8792 70.5801 21.5056 71.6618 21.1518C72.7655 20.7951 74.4865 22.4852 75.5795 22.167C76.6926 21.8421 77.2364 19.492 78.3379 19.206C79.461 18.9138 81.0793 20.7019 82.1878 20.4499C83.3207 20.1928 84.0091 17.8805 85.123 17.6644C86.2662 17.4434 87.7636 19.3329 88.8834 19.156C90.0348 18.9743 90.8804 16.715 92.0049 16.5801C93.1634 16.4405 94.5173 18.4356 95.6442 18.3449C96.8096 18.2522 97.8347 16.0674 98.9621 16.0275C100.132 15.9848 101.305 18.092 102.431 18.1062C103.605 18.1211 104.84 16.0483 105.962 16.1245C107.136 16.2044 108.068 18.4282 109.179 18.5756C110.348 18.7308 111.839 16.8341 112.933 17.0634C114.087 17.3086 114.675 19.6437 115.737 19.9708C116.871 20.3181 118.683 18.7245 119.704 19.166C120.793 19.6367 120.842 22.0408 121.792 22.6184C122.804 23.2323 124.983 22.202 125.824 22.9375C126.706 23.7056 125.947 25.982 126.629 26.8847C127.32 27.8038 129.722 27.7202 130.191 28.7743Z" fill="#FFC200" stroke="#141414" stroke-width="4.65594"/>
<path d="M52.5598 74.1425L50.7064 74.9675L44.5767 61.1977L36.4934 64.796L42.6232 78.5658L40.7698 79.3909L34.6401 65.6211L31.8445 66.8655L32.1171 64.4853L33.8009 63.7358L30.5788 56.4977L32.4321 55.6727L35.6542 62.9107L43.7374 59.3124L40.5154 52.0744L42.3688 51.2493L52.5598 74.1425Z" fill="#226EDD"/>
<path d="M57.8992 69.5469L66.5563 65.6931L67.3809 67.5455L56.8714 72.2239L50.7416 58.4541L47.9461 59.6986L48.2338 57.3522L49.9175 56.6027L46.6803 49.3307L57.1898 44.6523L58.014 46.5037L49.3569 50.3575L51.7699 55.7781L57.2601 53.334L58.0843 55.1854L52.5941 57.6295L57.8992 69.5469Z" fill="#226EDD"/>
<path d="M77.5541 63.0174L69.3981 66.648L59.207 43.7549L61.0604 42.9298L70.4269 63.9706L76.7275 61.1658L77.5541 63.0174Z" fill="#226EDD"/>
<path d="M87.726 58.4897L79.5758 62.1178L69.3848 39.2246L71.2371 38.4L80.6036 59.4408L86.9043 56.636L87.726 58.4897Z" fill="#226EDD"/>
<path d="M90.7304 29.1576C92.8285 28.2007 95.1468 27.8307 97.4383 28.0869C99.6914 28.329 101.843 29.1498 103.685 30.4695C105.556 31.8033 106.976 33.5579 107.944 35.7332C108.901 37.8299 109.27 40.1469 109.012 42.4373C108.769 44.6948 107.941 46.8501 106.61 48.6907C105.267 50.5649 103.441 52.0399 101.326 52.9586C99.1471 53.9283 96.917 54.2826 94.6351 54.0215C92.3824 53.7716 90.2333 52.9422 88.3974 51.6141C86.5232 50.2727 85.0485 48.4478 84.1306 46.334C83.4269 44.7644 83.0431 43.0703 83.0016 41.3506C82.9554 39.6433 83.248 37.9436 83.8625 36.3497C84.4688 34.7609 85.3874 33.3096 86.564 32.0814C87.7468 30.8422 89.1627 29.8486 90.7304 29.1576ZM91.5546 31.009C89.7893 31.7839 88.2618 33.0139 87.1285 34.5731C85.9805 36.1295 85.2784 37.969 85.0976 39.894C84.89 41.8113 85.1955 43.7492 85.983 45.5094C86.7603 47.2883 88.0021 48.8252 89.5782 49.9591C91.1342 51.0967 92.9655 51.7992 94.8837 51.9944C96.8017 52.2076 98.7421 51.9012 100.501 51.1072C102.281 50.3292 103.82 49.0871 104.955 47.5111C106.093 45.9548 106.796 44.1242 106.992 42.2071C107.204 40.2771 106.893 38.3259 106.092 36.5578C105.311 34.7947 104.075 33.2708 102.512 32.142C100.96 30.9886 99.1241 30.2792 97.1998 30.0898C95.27 29.8906 93.3217 30.2079 91.5546 31.009Z" fill="#226EDD"/>
<path d="M26.6444 77.7076C27.956 77.1237 28.5462 75.5877 27.9626 74.2768C27.379 72.9659 25.8427 72.3765 24.5311 72.9604C23.2195 73.5443 22.6293 75.0803 23.2129 76.3912C23.7964 77.7021 25.3328 78.2915 26.6444 77.7076Z" fill="#226EDD"/>
<path d="M118.15 36.9742C119.462 36.3903 120.052 34.8543 119.468 33.5434C118.885 32.2325 117.349 31.6431 116.037 32.227C114.725 32.8109 114.135 34.3469 114.719 35.6578C115.302 36.9687 116.839 37.5581 118.15 36.9742Z" fill="#226EDD"/>
</svg>
