<svg width="91" height="91" viewBox="0 0 91 91" fill="none" xmlns="http://www.w3.org/2000/svg">
<path d="M27.1393 11.0492C30.2917 8.95336 33.6314 7.1555 37.1153 5.67883C54.0713 -1.42883 72.5995 6.49254 83.3363 19.0459C89.4866 30.0308 89.5758 44.8991 83.4741 57.4036C77.7437 69.1148 67.0984 78.6045 53.5137 84.1255C46.2781 87.0507 39.5577 88.2774 33.5452 87.7383C28.4112 87.2786 24.0297 84.9616 20.5164 82.1584C20.2629 81.955 20.0234 81.7515 19.7841 81.5481C18.8895 80.7995 18.0537 80.0102 17.2687 79.2331C16.3701 78.3177 15.5506 77.3901 14.8244 76.5093L14.7311 76.5927C14.7027 76.5479 14.6581 76.5133 14.6277 76.4686C4.45893 64.9446 0.655478 50.8757 4.42845 38.8635C8.07363 27.309 17.364 17.5019 27.1393 11.0492ZM14.5627 47.3422C14.652 48.0908 14.1144 48.339 13.8547 48.9696C13.5816 49.6449 13.4585 50.3717 13.4938 51.0995C13.5344 52.6455 14.0313 54.0817 14.6277 55.41C18.1288 63.429 25.1454 69.5318 33.9571 71.3687C39.2048 72.453 45.0366 72.0705 50.5581 70.0851C53.3503 69.0923 55.9863 67.7038 58.386 65.9617C59.2237 65.3657 59.6539 64.8266 60.0555 65.1134C60.1957 65.2204 60.3077 65.3601 60.382 65.5203C60.9743 66.6818 60.8485 67.9125 61.9033 68.8747C62.0051 68.9902 62.1396 69.0718 62.2888 69.1087C62.6093 69.1738 62.9542 68.9236 63.226 68.6611C64.8259 67.1445 65.8014 65.0819 65.9603 62.8798C66.7859 60.3594 64.6113 57.6925 62.6822 56.8178C61.8708 56.4597 59.2339 55.3348 58.3028 56.118C56.9843 57.2429 58.9622 59.8061 59.1671 60.8598C59.2253 61.0837 59.2342 61.3176 59.1934 61.5453C59.1224 61.8891 58.8547 62.1922 58.5849 62.4709C55.3393 65.9149 51.0348 67.05 46.9494 68.4496C43.1425 69.7355 39.0355 69.8292 35.1742 68.7181C27.0461 66.4092 20.9017 60.0481 17.9178 52.3668C17.4817 51.2521 16.6115 48.1498 17.3093 46.8581C17.642 46.2356 18.3701 45.9244 19.0192 45.6864C20.5588 45.0964 22.0946 44.5289 23.6362 44.002C23.8674 43.0622 22.981 42.456 22.1493 42.1549C18.9747 40.9995 15.0496 41.329 11.6012 43.0134C10.1488 43.7376 8.72891 44.7384 7.91549 46.1461C7.6173 46.6628 7.41232 47.2873 7.64965 47.745C7.98435 48.3553 8.90937 48.276 9.6599 48.1519C11.2847 47.8691 12.9704 47.4358 14.5627 47.3422ZM34.239 38.8228C37.4845 38.4933 38.1561 32.2624 38.9756 29.8945C39.8052 27.4758 41.142 26.5726 43.3043 25.3785C46.8724 23.45 48.1889 20.0894 49.6677 16.5682C50.4791 14.658 50.5074 10.8723 47.3633 11.2466C44.6897 11.5639 44.4463 16.1044 43.5761 17.9738C42.2677 20.7933 39.1135 22.0423 36.9146 23.9423C34.4862 26.081 32.7735 28.9178 32.0096 32.0671C31.6181 33.666 30.957 37.2463 32.527 38.4424C33.0253 38.7892 33.6393 38.9258 34.237 38.8228H34.239ZM52.6312 46.5367C55.8767 46.2071 56.5503 39.9762 57.3698 37.6084C58.1811 35.1998 59.5341 34.2864 61.7066 33.1086C65.2504 31.174 66.575 27.8196 68.0599 24.282C68.5832 23.0452 69.0741 21.5317 68.2627 20.2603C66.2343 17.1113 63.6865 20.3905 62.9887 22.498C62.6276 23.5639 62.4248 24.6767 61.9562 25.708C60.6641 28.5173 57.5076 29.748 55.2864 31.6602C52.8634 33.8034 51.152 36.6385 50.3816 39.785C49.9901 41.3839 49.3451 44.954 50.9131 46.1502C51.4122 46.5003 52.0287 46.6391 52.6292 46.5367H52.6312Z" fill="#5C59ED" stroke="#0A090A" stroke-width="5.95247"/>
<path d="M7.66464 47.747C7.99934 48.3573 8.92436 48.278 9.67489 48.1539C11.2835 47.8589 12.9691 47.4256 14.5615 47.3402C14.6507 48.0888 14.1131 48.337 13.8535 48.9676C13.5804 49.6428 13.4573 50.3696 13.4926 51.0974C13.5331 52.6435 14.0301 54.0796 14.6264 55.408C18.1276 63.427 25.1441 69.5297 33.9558 71.3667C39.2035 72.4509 45.0353 72.0685 50.5569 70.083C53.349 69.0903 55.985 67.7017 58.3847 65.9597C59.2225 65.3636 59.6526 64.8245 60.0543 65.1114C60.1944 65.2184 60.3064 65.358 60.3807 65.5182C60.973 66.6798 60.8473 67.9105 61.9021 68.8727C62.0039 68.9881 62.1384 69.0697 62.2876 69.1066C62.6081 69.1717 62.9529 68.9215 63.2248 68.6591C64.8247 67.1424 65.8001 65.0799 65.959 62.8778C66.7846 60.3573 64.6101 57.6904 62.681 56.8157C61.8696 56.4577 59.2326 55.3327 58.3015 56.1159C56.983 57.2409 58.9609 59.804 59.1658 60.8577C59.224 61.0816 59.233 61.3156 59.1922 61.5433C59.1212 61.8871 58.8534 62.1902 58.5836 62.4689C55.3381 65.9129 51.0335 67.048 46.9482 68.4475C43.1412 69.7335 39.0342 69.8271 35.1729 68.716C27.0448 66.4072 20.9005 60.0461 17.9166 52.3648C17.4805 51.25 16.6102 48.1478 17.308 46.856C17.6407 46.2336 18.3689 45.9223 19.018 45.6843C20.5576 45.0944 22.0933 44.5268 23.6349 43.9999C23.8662 43.0601 22.9797 42.4539 22.1481 42.1529C18.9735 40.9974 15.0484 41.3269 11.6 43.0113C10.1476 43.7355 8.72766 44.7363 7.91424 46.144C7.63228 46.6648 7.42731 47.2893 7.66464 47.747Z" fill="#FFADE3"/>
<path d="M32.0072 32.0671C31.6157 33.666 30.9544 37.2463 32.5245 38.4424C33.0232 38.7897 33.6382 38.9263 34.2366 38.8228C37.4822 38.4933 38.1535 32.2624 38.973 29.8945C39.8027 27.4758 41.1394 26.5725 43.3017 25.3784C46.8698 23.45 48.1863 20.0894 49.6651 16.5681C50.4765 14.658 50.505 10.8722 47.3609 11.2465C44.6873 11.5639 44.4439 16.1043 43.5737 17.9738C42.2654 20.7933 39.1109 22.0423 36.912 23.9423C34.4837 26.081 32.7711 28.9178 32.0072 32.0671Z" fill="#FFADE3"/>
<path d="M50.3858 39.7838C49.9943 41.3827 49.3491 44.9529 50.9171 46.149C51.416 46.4959 52.0309 46.6325 52.6292 46.5294C55.8748 46.1998 56.5483 39.9689 57.3678 37.6011C58.1792 35.1925 59.5322 34.2792 61.7047 33.1013C65.2484 31.1668 66.5729 27.8123 68.0577 24.2747C68.5811 23.0379 69.072 21.5244 68.2606 20.253C66.2321 17.104 63.6843 20.3832 62.9865 22.4907C62.6255 23.5566 62.4227 24.6694 61.9541 25.7007C60.6619 28.51 57.5056 29.7408 55.2845 31.6529C52.8626 33.7986 51.1534 36.6358 50.3858 39.7838Z" fill="#FFADE3"/>
</svg>
