<svg width="223" height="197" viewBox="0 0 223 197" fill="none" xmlns="http://www.w3.org/2000/svg">
<g clip-path="url(#clip0_207_2180)">
<path d="M192.35 147.729C192.798 145.732 192.669 143.689 191.981 141.913C191.293 140.137 190.085 138.727 188.542 137.9L140.261 111.565L147.386 44.1819C147.632 41.8196 147.195 39.5089 146.143 37.6015C145.09 35.694 143.48 34.2942 141.556 33.6149C140.835 33.3633 140.079 33.2156 139.307 33.175L45.2067 28.4197C43.9519 28.3572 42.6733 28.5821 41.4456 29.0814C40.2179 29.5806 39.066 30.3441 38.0572 31.3272C37.0483 32.3103 36.2029 33.4931 35.5705 34.8064C34.9381 36.1198 34.5313 37.5372 34.374 38.9757L25.3982 121.411C25.3824 121.456 25.3922 121.51 25.386 121.559C25.3714 121.745 25.3582 121.927 25.3514 122.111C25.3488 122.19 25.3494 122.271 25.348 122.347C25.3503 122.526 25.3526 122.704 25.3639 122.878L25.3749 123.093C25.3941 123.316 25.4224 123.534 25.4558 123.757L25.4624 123.811C25.5021 124.044 25.5527 124.274 25.614 124.499C25.6301 124.571 25.6499 124.642 25.6733 124.711C25.7163 124.866 25.7672 125.019 25.8172 125.185C25.8442 125.262 25.8712 125.339 25.9027 125.414C25.9612 125.566 26.0269 125.708 26.0913 125.853C26.1236 125.915 26.15 125.984 26.1855 126.047C26.3919 126.455 26.6352 126.836 26.912 127.183L26.9482 127.234C27.0285 127.334 27.11 127.43 27.2057 127.527L27.2529 127.578C27.3658 127.698 27.4832 127.815 27.6033 127.925L27.7215 128.03C27.8212 128.115 27.9221 128.197 28.0277 128.277L28.1319 128.36C28.2733 128.46 28.4225 128.559 28.5646 128.647L93.8702 167.769C94.2687 168.01 94.6888 168.208 95.1257 168.361C96.1998 168.739 97.3566 168.842 98.5182 168.663L184.659 155.597C186.442 155.341 188.161 154.432 189.55 153.01C190.94 151.589 191.923 149.733 192.35 147.729Z" fill="black"/>
<path d="M41.2586 39.154L32.2828 121.589L132.822 116.589L140.49 44.0317C140.573 43.2652 140.389 42.523 139.978 41.9647C139.567 41.4064 138.962 41.0766 138.293 41.0462L44.2024 36.2818C43.8611 36.2642 43.5132 36.325 43.1791 36.4607C42.8451 36.5964 42.5317 36.8041 42.2573 37.0718C41.983 37.3394 41.7533 37.6616 41.5818 38.0192C41.4103 38.3768 41.3004 38.7626 41.2586 39.154Z" fill="#FF5632" stroke="black" stroke-width="2.3594" stroke-linecap="round" stroke-linejoin="round"/>
<path d="M32.2874 121.589L97.5898 160.71C97.8022 160.838 98.05 160.886 98.3013 160.849L184.446 147.784C184.719 147.743 184.982 147.603 185.194 147.385C185.407 147.168 185.558 146.884 185.625 146.577C185.691 146.27 185.67 145.958 185.564 145.686C185.457 145.414 185.272 145.198 185.035 145.071L132.822 116.592L32.2874 121.589Z" fill="#FF5632" stroke="black" stroke-width="2.3594" stroke-linecap="round" stroke-linejoin="round"/>
<path d="M152.325 131.307C152.416 131.356 152.489 131.44 152.53 131.546C152.571 131.651 152.58 131.773 152.553 131.892C152.527 132.011 152.468 132.121 152.385 132.205C152.302 132.289 152.2 132.343 152.094 132.358L132.282 135.363L108.373 138.998L79.3306 143.404C79.233 143.417 79.1368 143.398 79.0542 143.349L50.852 126.45C50.7594 126.396 50.6885 126.307 50.6507 126.197C50.613 126.086 50.6104 125.96 50.6436 125.839C50.6767 125.719 50.7435 125.61 50.8334 125.531C50.9233 125.452 51.0311 125.406 51.1396 125.402L83.0381 123.819L108.775 122.536L133.847 121.291C133.923 121.289 133.997 121.306 134.063 121.342L152.325 131.307Z" fill="#FF2D00" stroke="black" stroke-width="2.3594" stroke-linecap="round" stroke-linejoin="round"/>
<path d="M152.232 147.155L128.219 150.8C128.143 150.81 128.068 150.796 128.003 150.758L116.052 143.608C115.982 143.568 115.928 143.503 115.898 143.421C115.868 143.339 115.863 143.246 115.884 143.154C115.905 143.063 115.952 142.98 116.016 142.916C116.08 142.852 116.159 142.812 116.241 142.801L139.338 139.293C139.409 139.284 139.479 139.297 139.541 139.33L152.407 146.348C152.474 146.388 152.527 146.453 152.556 146.533C152.586 146.613 152.592 146.704 152.572 146.794C152.553 146.883 152.51 146.967 152.448 147.031C152.387 147.096 152.312 147.14 152.232 147.155Z" fill="black"/>
<path d="M126.2 110.053L42.5755 114.212C42.3548 114.226 42.1385 114.189 41.9403 114.102C41.7421 114.014 41.5663 113.879 41.4241 113.705C41.282 113.53 41.1764 113.32 41.1144 113.088C41.0523 112.856 41.035 112.606 41.0635 112.356L48.2429 46.4031C48.2691 46.1613 48.3374 45.9229 48.4436 45.7021C48.5498 45.4813 48.6919 45.2824 48.8615 45.1172C49.0312 44.9519 49.2249 44.8237 49.4313 44.7399C49.6377 44.6561 49.8527 44.6185 50.0636 44.6293L132.782 48.8111C133.195 48.8324 133.568 49.038 133.822 49.384C134.075 49.7299 134.188 50.1888 134.137 50.6627L127.859 108.278C127.812 108.736 127.614 109.173 127.306 109.503C126.998 109.832 126.603 110.029 126.2 110.053Z" fill="#A473FF" stroke="black" stroke-width="2.3594" stroke-linecap="round" stroke-linejoin="round"/>
<path d="M86.5607 66.8892C92.7825 60.1389 91.2928 72.7198 92.4242 75.0144C93.5556 77.3089 109.461 69.8086 116.886 66.8865C121.405 65.1038 123.617 70.6498 112.494 74.8325C105.164 77.5846 96.0736 81.2923 96.0736 81.2923C96.0736 81.2923 110.508 85.0744 115.856 85.7812C120.934 86.4359 119.387 90.2675 115.513 90.3223C108.99 90.4289 99.389 91.0976 84.3894 91.5332C69.3898 91.9689 52.7808 88.5527 52.7808 88.5527C52.7808 88.5527 70.4376 84.386 86.5607 66.8892Z" fill="#FB5531" stroke="black" stroke-width="2.3594" stroke-linecap="round" stroke-linejoin="round"/>
<path d="M86.4812 75.8457C87.371 76.1573 88.5136 75.2064 89.0333 73.7221C89.553 72.2377 89.2529 70.7818 88.3631 70.4703C87.4733 70.1588 86.3307 71.1096 85.811 72.594C85.2913 74.0784 85.5914 75.5342 86.4812 75.8457Z" fill="black"/>
<path d="M102.872 78.5672C102.002 80.2711 103.913 82.1182 104.656 80.6749C105.357 79.3981 106.12 78.1626 106.942 76.9749L102.872 78.5672Z" fill="black"/>
<path d="M109.787 76.0909C109.787 76.0909 108.48 80.0615 109.839 80.0585C111.199 80.0556 112.795 74.9403 112.795 74.9403L109.787 76.0909Z" fill="black"/>
<path d="M115.39 73.5634C113.97 76.8799 114.032 79.2449 115.454 78.0436C116.876 76.8422 118.63 71.8415 118.63 71.8415L115.39 73.5634Z" fill="black"/>
<path d="M104.983 83.5227C106.439 81.4221 108.001 80.0454 108.061 81.6342C108.133 82.4822 107.963 83.3617 107.575 84.1462L104.983 83.5227Z" fill="black"/>
<path d="M110.61 84.8078C111.189 83.5953 111.84 81.2934 113.108 81.2329C114.375 81.1725 113.874 85.4338 113.874 85.4338L110.61 84.8078Z" fill="black"/>
<path d="M73.0509 85.9489C73.7411 85.3263 73.7852 84.0461 73.1492 83.0896C72.5133 82.133 71.4381 81.8623 70.7479 82.4849C70.0576 83.1076 70.0136 84.3878 70.6495 85.3443C71.2855 86.3009 72.3606 86.5716 73.0509 85.9489Z" fill="#6D1260"/>
<path d="M75.2192 82.2516C75.6902 82.2525 76.1154 81.7736 76.169 81.182C76.2226 80.5903 75.8843 80.1099 75.4133 80.109C74.9424 80.1081 74.5171 80.5871 74.4635 81.1787C74.4099 81.7704 74.7483 82.2507 75.2192 82.2516Z" fill="#6D1260"/>
<path d="M67.3489 88.0685C67.9799 88.2895 68.7299 87.7874 69.024 86.9473C69.3182 86.1071 69.0451 85.2469 68.414 85.026C67.783 84.8051 67.033 85.3071 66.7389 86.1473C66.4448 86.9874 66.7179 87.8476 67.3489 88.0685Z" fill="#6D1260"/>
<path d="M75.2246 87.4105C75.5791 87.5346 75.9848 87.2972 76.1308 86.8802C76.2768 86.4632 76.1077 86.0246 75.7532 85.9005C75.3987 85.7764 74.993 86.0138 74.847 86.4308C74.701 86.8477 74.8701 87.2864 75.2246 87.4105Z" fill="#6D1260"/>
</g>
<defs>
<clipPath id="clip0_207_2180">
<rect width="185.449" height="142.508" fill="white" transform="translate(47.4395 0.666016) rotate(19.2945)"/>
</clipPath>
</defs>
</svg>
