<svg width="166" height="158" viewBox="0 0 166 158" fill="none" xmlns="http://www.w3.org/2000/svg">
    <g clip-path="url(#clip0_614_2457)">
        <path opacity="0.5"
            d="M143.498 74.5765C139.167 74.0986 134.786 74.4051 130.564 75.4813C129.482 75.7213 128.449 75.9563 127.469 76.1987C134.925 56.4392 125.569 38.0771 118.291 29.8633C114.435 25.6208 109.556 22.4367 104.12 20.6144C96.0338 17.4662 87.0603 17.4692 78.9764 20.623C72.0961 22.9819 66.8051 28.5576 64.8096 35.5519C64.0971 35.2505 63.3504 34.9659 62.5735 34.7046C55.3715 31.8768 44.2472 30.6066 31.8604 40.3881C23.2437 47.1905 18.1922 58.3636 17.9996 71.0445C17.793 84.5697 23.2436 97.3252 32.5793 105.168C34.9904 107.204 37.6015 108.992 40.3725 110.502C37.8113 111.598 35.7615 113.625 34.6376 116.174C32.334 121.233 33.0355 128.449 36.7831 138.234C40.3655 147.589 45.2999 152.425 51.4584 152.62C53.757 153.008 56.1184 152.74 58.2722 151.849C59.8269 151.205 61.3059 150.392 62.6824 149.424L63.0981 149.149C65.0236 147.891 66.783 146.396 68.3349 144.698C70.5608 144.484 72.7202 143.82 74.6824 142.747C77.9631 140.91 80.6131 138.125 82.286 134.757C83.0351 134.928 83.7984 135.03 84.5663 135.062C86.765 135.454 89.0288 135.242 91.1165 134.449C94.561 133.137 97.3003 130.445 98.672 127.024C98.9971 127.064 99.326 127.089 99.6587 127.098C100.67 127.305 101.707 127.356 102.734 127.252C110.274 126.468 116.412 123.528 119.153 119.383C119.237 119.255 119.318 119.127 119.396 118.998C120.899 119.882 122.608 120.357 124.352 120.374C126.374 120.73 128.456 120.509 130.357 119.734C132.456 118.97 134.135 117.354 134.977 115.284C136.324 115.99 137.82 116.365 139.341 116.378C141.29 116.733 143.3 116.528 145.136 115.784C147.756 114.779 149.774 112.633 150.618 109.957C152.092 105.414 150.195 99.4061 147.981 94.608C149.895 93.9866 151.631 92.9109 153.039 91.4729C154.863 89.5271 155.748 86.8833 155.465 84.2314C155.263 82.1508 153.801 75.3515 143.498 74.5765Z"
            fill="#231F20" />
        <path
            d="M141.461 73.2738C137.13 72.7959 132.749 73.1024 128.527 74.1786C127.445 74.4187 126.412 74.6536 125.432 74.896C132.887 55.1365 123.532 36.7744 116.254 28.5606C112.397 24.3181 107.519 21.134 102.083 19.3117C93.9967 16.1635 85.0232 16.1665 76.9393 19.3203C70.059 21.6792 64.768 27.2549 62.7725 34.2492C62.06 33.9478 61.3133 33.6632 60.5363 33.4019C53.3344 30.574 42.2101 29.3038 29.8233 39.0854C21.2066 45.8878 16.1551 57.0609 15.9625 69.7418C15.7559 83.267 21.2065 96.0225 30.5421 103.865C32.9533 105.901 35.5644 107.689 38.3354 109.2C35.7742 110.295 33.7244 112.322 32.6005 114.871C30.2969 119.931 30.9984 127.147 34.746 136.931C38.3284 146.287 43.2628 151.122 49.4213 151.317C51.7199 151.705 54.0813 151.438 56.2351 150.546C57.7898 149.902 59.2689 149.089 60.6454 148.122L61.0611 147.846C62.9865 146.588 64.7459 145.093 66.2978 143.395C68.5238 143.181 70.6831 142.517 72.6453 141.445C75.926 139.607 78.5759 136.822 80.2488 133.454C80.9979 133.626 81.7612 133.728 82.5291 133.759C84.7278 134.152 86.9916 133.94 89.0793 133.147C92.5238 131.835 95.2631 129.143 96.6348 125.721C96.9599 125.762 97.2888 125.786 97.6215 125.796C98.6329 126.002 99.6697 126.054 100.697 125.949C108.237 125.166 114.375 122.225 117.116 118.08C117.2 117.952 117.28 117.824 117.359 117.695C118.862 118.58 120.571 119.054 122.315 119.071C124.337 119.428 126.418 119.206 128.32 118.431C130.419 117.668 132.098 116.051 132.94 113.982C134.287 114.687 135.783 115.062 137.304 115.075C139.253 115.431 141.262 115.225 143.099 114.481C145.719 113.476 147.737 111.33 148.581 108.654C150.055 104.111 148.158 98.1034 145.944 93.3053C147.858 92.6839 149.593 91.6082 151.002 90.1701C152.825 88.2243 153.711 85.5805 153.428 82.9287C153.226 80.848 151.763 74.0488 141.461 73.2738Z"
            fill="white" />
        <path
            d="M112.154 32.1722C104.054 23.4008 91.3865 20.5282 80.2955 24.9478C66.3127 30.18 68.8362 44.721 68.8362 44.721C68.8362 44.721 53.8543 28.7217 34.6481 43.8846C18.614 56.5432 18.9722 86.3163 35.4953 100.197C52.0185 114.078 70.1145 109.266 92.1863 112.312C97.064 113.209 101.878 114.423 106.597 115.948C106.597 115.948 103.918 104.907 118.32 77.3881C128.676 57.5987 118.344 39.1579 112.154 32.1722Z"
            fill="#22093A" stroke="#22093A" stroke-width="1.1" stroke-linecap="round" stroke-linejoin="round" />
        <path
            d="M67.3831 44.1976C67.3831 44.1976 52.4011 28.1983 33.195 43.3611C17.1609 56.0198 17.5191 85.7928 34.0423 99.6735C50.5654 113.554 68.6613 108.742 90.7332 111.789C95.6109 112.685 100.425 113.9 105.144 115.424C105.144 115.424 102.465 104.383 116.866 76.8648C127.223 57.0753 116.891 38.6345 110.701 31.6489C102.601 22.8774 89.9334 20.0047 78.8423 24.4243C64.8594 29.6566 67.3831 44.1976 67.3831 44.1976Z"
            fill="#E9022C" stroke="#22093A" stroke-width="1.1" stroke-linecap="round" stroke-linejoin="round" />
        <path
            d="M60.4049 55.9336C60.4049 55.9336 62.1547 62.9566 65.712 60.6691C69.2693 58.3817 66.733 53.4495 66.733 53.4495"
            stroke="#22093A" stroke-width="1.1" stroke-linecap="round" stroke-linejoin="round" />
        <path
            d="M72.3908 50.4683C72.3908 50.4683 74.7758 56.5441 78.2637 54.404C81.7515 52.264 78.8384 46.7883 78.8384 46.7883"
            stroke="#22093A" stroke-width="1.1" stroke-linecap="round" stroke-linejoin="round" />
        <path
            d="M54.4219 66.9785C54.4219 66.9785 64.0467 63.2004 68.7506 71.9119C72.3048 78.4942 70.0976 86.7219 70.0976 86.7219"
            stroke="#22093A" stroke-width="1.1" stroke-linecap="round" stroke-linejoin="round" />
        <path
            d="M86.3701 48.1025C83.8637 52.665 84.2444 58.2695 87.3447 62.4512C92.1626 69.3445 100.655 66.0107 100.655 66.0107"
            stroke="#22093A" stroke-width="1.1" stroke-linecap="round" stroke-linejoin="round" />
        <path
            d="M68.7498 71.9121C68.7498 71.9121 75.2871 78.6031 82.3925 74.3291C89.4979 70.055 86.9683 61.8844 86.9683 61.8844"
            stroke="#22093A" stroke-width="1.1" stroke-linecap="round" stroke-linejoin="round" />
        <path
            d="M55.2633 93.0411C59.6708 91.311 61.8412 86.3355 60.1111 81.928C58.381 77.5205 53.4055 75.3501 48.998 77.0802C44.5905 78.8104 42.4201 83.7859 44.1502 88.1933C45.8804 92.6008 50.8559 94.7712 55.2633 93.0411Z"
            fill="#FF4069" />
        <path
            d="M104.607 58.8185C109.015 57.0883 111.185 52.1128 109.455 47.7054C107.725 43.2979 102.749 41.1275 98.3418 42.8576C93.9343 44.5877 91.7639 49.5632 93.494 53.9707C95.2241 58.3781 100.2 60.5486 104.607 58.8185Z"
            fill="#FF4069" />
        <path
            d="M110.411 74.8621C109.559 75.451 109.346 76.6189 109.935 77.4706C110.061 77.6529 110.218 77.8114 110.399 77.9387"
            stroke="white" stroke-width="1.1" stroke-linecap="round" stroke-linejoin="round" />
        <path
            d="M56.0257 107.615C60.9046 104.865 70.9342 106.015 75.2027 116.029C79.4713 126.042 75.3469 133.689 69.9889 136.657C65.1545 139.335 56.6947 138.785 51.8007 128.281C47.7912 119.676 48.8596 111.653 56.0257 107.615Z"
            fill="#22093A" stroke="#22093A" stroke-width="1.1" stroke-linecap="round" stroke-linejoin="round" />
        <path
            d="M60.5052 114.797C61.0485 114.071 62.9943 115.463 64.983 120.096C66.9717 124.73 67.161 127.602 66.558 128.379C66.014 129.079 64.424 128.083 62.263 123.185C60.4925 119.173 59.7072 115.865 60.5052 114.797Z"
            fill="#22093A" stroke="#22093A" stroke-width="1.1" stroke-linecap="round" stroke-linejoin="round" />
        <path
            d="M54.5449 134.887C59.6423 127.092 64.533 132.948 64.4355 135.807C64.3647 137.883 61.2778 141.163 58.0621 143.264C54.8463 145.365 47.6006 151.182 41.4577 135.145C35.3148 119.107 39.7436 115.242 42.2772 114.316C45.3171 113.205 50.4318 114.698 52.3729 124.304C53.8476 131.602 54.5449 134.887 54.5449 134.887Z"
            fill="#22093A" stroke="#22093A" stroke-width="1.1" stroke-linecap="round" stroke-linejoin="round" />
        <path
            d="M71.2328 100.707C68.3803 102.522 67.5535 105.974 68.8402 109.536C70.2321 113.389 77.5512 131.606 87.1575 128.02C92.1576 126.153 93.6136 119.267 92.993 112.206C92.3196 104.545 89.3245 93.8021 85.2593 94.9482C78.729 96.7894 83.5866 115.672 83.5866 115.672C83.5866 115.672 76.7905 97.1705 71.2328 100.707Z"
            fill="#22093A" stroke="#22093A" stroke-width="1.1" stroke-linecap="round" stroke-linejoin="round" />
        <path
            d="M106.258 89.9309C103.93 87.7802 91.6998 91.2092 90.7151 98.9915C90.0726 104.07 91.8839 121.361 100.12 120.507C108.355 119.654 114.441 115.793 113.131 111.547C111.822 107.302 101.849 110.389 101.849 110.389C101.849 110.389 110.213 107.124 109.154 102.629C108.096 98.1353 99.6532 102.563 99.6532 102.563C99.6532 102.563 112.503 95.7012 106.258 89.9309Z"
            fill="#22093A" stroke="#22093A" stroke-width="1.1" stroke-linecap="round" stroke-linejoin="round" />
        <path
            d="M116.467 83.4064C121.322 81.832 123.89 86.5072 126.199 96.0386C128.243 104.474 129.787 111.97 126.308 113.339C121.015 115.422 117.638 110.015 114.56 99.9665C111.481 89.918 112.366 84.7364 116.467 83.4064Z"
            fill="#22093A" stroke="#22093A" stroke-width="1.1" stroke-linecap="round" stroke-linejoin="round" />
        <path
            d="M114.846 80.9355C117.291 79.9757 118.532 77.3104 117.618 74.9822C116.704 72.654 113.981 71.5447 111.536 72.5044C109.091 73.4642 107.85 76.1295 108.764 78.4577C109.678 80.7859 112.401 81.8952 114.846 80.9355Z"
            fill="#22093A" stroke="#22093A" stroke-width="1.1" stroke-linecap="round" stroke-linejoin="round" />
        <path
            d="M131.321 79.6762C142.577 77.1817 147.596 79.4935 147.981 83.4474C148.56 89.389 137.406 89.0827 137.406 89.0827C137.406 89.0827 148.535 106.466 141.09 109.388C131.808 113.032 129.445 90.2833 129.445 90.2833C129.445 90.2833 120.524 92.3906 119.977 87.532C119.43 82.6735 123.504 81.4084 131.321 79.6762Z"
            fill="#22093A" stroke="#22093A" stroke-width="1.1" stroke-linecap="round" stroke-linejoin="round" />
        <path
            d="M54.3968 107.439C59.2757 104.689 69.3053 105.84 73.5738 115.853C77.8424 125.867 73.7179 133.513 68.36 136.481C63.5256 139.159 55.0658 138.609 50.1718 128.106C46.1623 119.5 47.2307 111.477 54.3968 107.439Z"
            fill="#9736FF" stroke="#22093A" stroke-width="1.1" stroke-linecap="round" stroke-linejoin="round" />
        <path
            d="M58.8802 114.622C59.4235 113.895 61.3693 115.287 63.358 119.92C65.3467 124.554 65.536 127.427 64.9331 128.203C64.3891 128.903 62.7991 127.908 60.638 123.01C58.8675 118.997 58.0823 115.689 58.8802 114.622Z"
            fill="#22093A" stroke="#22093A" stroke-width="1.1" stroke-linecap="round" stroke-linejoin="round" />
        <path
            d="M52.9198 134.711C58.0172 126.916 62.9079 132.772 62.8104 135.631C62.7396 137.707 59.6527 140.987 56.437 143.088C53.2213 145.189 45.9755 151.006 39.8327 134.969C33.6898 118.932 38.1186 115.066 40.6521 114.14C43.692 113.03 48.8067 114.522 50.7478 124.128C52.2226 131.426 52.9198 134.711 52.9198 134.711Z"
            fill="#9736FF" stroke="#22093A" stroke-width="1.1" stroke-linecap="round" stroke-linejoin="round" />
        <path
            d="M69.6059 100.531C66.7533 102.347 65.9266 105.798 67.2133 109.36C68.6051 113.213 75.9242 131.431 85.5306 127.844C90.5307 125.978 91.9867 119.091 91.366 112.03C90.6926 104.37 87.6975 93.6262 83.6323 94.7724C77.102 96.6136 81.9597 115.496 81.9597 115.496C81.9597 115.496 75.1635 96.9947 69.6059 100.531Z"
            fill="#9736FF" stroke="#22093A" stroke-width="1.1" stroke-linecap="round" stroke-linejoin="round" />
        <path
            d="M104.633 89.7531C102.305 87.6025 90.0748 91.0314 89.0901 98.8138C88.4475 103.892 90.2589 121.183 98.4947 120.33C106.73 119.477 112.816 115.615 111.506 111.37C110.197 107.124 100.224 110.211 100.224 110.211C100.224 110.211 108.588 106.946 107.53 102.452C106.471 97.9575 98.0282 102.385 98.0282 102.385C98.0282 102.385 110.878 95.5235 104.633 89.7531Z"
            fill="#9736FF" stroke="#22093A" stroke-width="1.1" stroke-linecap="round" stroke-linejoin="round" />
        <path
            d="M114.84 83.2306C119.695 81.6562 122.263 86.3314 124.572 95.8628C126.616 104.299 128.16 111.794 124.681 113.164C119.388 115.246 116.011 109.839 112.933 99.7906C109.854 89.7422 110.739 84.5606 114.84 83.2306Z"
            fill="#9736FF" stroke="#22093A" stroke-width="1.1" stroke-linecap="round" stroke-linejoin="round" />
        <path
            d="M113.219 80.7597C115.664 79.8 116.905 77.1346 115.991 74.8064C115.077 72.4783 112.354 71.3689 109.909 72.3287C107.464 73.2884 106.223 75.9538 107.137 78.2819C108.051 80.6101 110.774 81.7194 113.219 80.7597Z"
            fill="#9736FF" stroke="#22093A" stroke-width="1.1" stroke-linecap="round" stroke-linejoin="round" />
        <path
            d="M129.696 79.4984C140.952 77.0039 145.971 79.3158 146.356 83.2697C146.935 89.2113 135.781 88.905 135.781 88.905C135.781 88.905 146.91 106.288 139.465 109.211C130.183 112.854 127.82 90.1055 127.82 90.1055C127.82 90.1055 118.899 92.2129 118.352 87.3543C117.805 82.4957 121.879 81.2307 129.696 79.4984Z"
            fill="#9736FF" stroke="#22093A" stroke-width="1.1" stroke-linecap="round" stroke-linejoin="round" />
    </g>
    <defs>
        <clipPath id="clip0_614_2457">
            <rect width="132" height="117.115" fill="white" transform="translate(0.166016 48.8418) rotate(-21.4321)" />
        </clipPath>
    </defs>
</svg>